<svg xmlns="http://www.w3.org/2000/svg" xmlns:xlink="http://www.w3.org/1999/xlink" width="500" zoomAndPan="magnify" viewBox="0 0 375 374.999991" height="500" preserveAspectRatio="xMidYMid meet" version="1.0"><defs><clipPath id="c78a5b6d4c"><path d="M 151 303 L 188 303 L 188 338.890625 L 151 338.890625 Z M 151 303 " clip-rule="nonzero"/></clipPath><clipPath id="302ecbc594"><path d="M 20.0625 115 L 57 115 L 57 152 L 20.0625 152 Z M 20.0625 115 " clip-rule="nonzero"/></clipPath><clipPath id="f29cfef581"><path d="M 20.0625 187 L 57 187 L 57 224 L 20.0625 224 Z M 20.0625 187 " clip-rule="nonzero"/></clipPath><clipPath id="6e8be3b031"><path d="M 129 225 L 248 225 L 248 370 L 129 370 Z M 129 225 " clip-rule="nonzero"/></clipPath><clipPath id="a990939cf7"><path d="M 166.667969 177.089844 L 291.273438 301.699219 L 193.023438 399.945312 L 68.417969 275.339844 Z M 166.667969 177.089844 " clip-rule="nonzero"/></clipPath><clipPath id="6ea5c47528"><path d="M 166.667969 177.089844 L 291.273438 301.699219 L 193.023438 399.945312 L 68.417969 275.339844 Z M 166.667969 177.089844 " clip-rule="nonzero"/></clipPath><clipPath id="326c2ad8bf"><path d="M 125 221 L 252 221 L 252 374 L 125 374 Z M 125 221 " clip-rule="nonzero"/></clipPath><clipPath id="2727bdfcf4"><path d="M 166.667969 177.089844 L 291.273438 301.699219 L 193.023438 399.945312 L 68.417969 275.339844 Z M 166.667969 177.089844 " clip-rule="nonzero"/></clipPath><clipPath id="35cf578119"><path d="M 166.667969 177.089844 L 291.273438 301.699219 L 193.023438 399.945312 L 68.417969 275.339844 Z M 166.667969 177.089844 " clip-rule="nonzero"/></clipPath><clipPath id="632371d3bf"><path d="M 177.53125 203.976562 L 283.429688 309.878906 L 192.21875 401.085938 L 86.320312 295.1875 Z M 177.53125 203.976562 " clip-rule="nonzero"/></clipPath><clipPath id="84e87ba3bc"><path d="M 177.53125 203.976562 L 283.394531 309.839844 L 192.1875 401.046875 L 86.324219 295.183594 Z M 177.53125 203.976562 " clip-rule="nonzero"/></clipPath><clipPath id="19aebf9570"><path d="M 162 195 L 171 195 L 171 219 L 162 219 Z M 162 195 " clip-rule="nonzero"/></clipPath><clipPath id="30427bf2b7"><path d="M 166.667969 177.089844 L 291.273438 301.699219 L 193.023438 399.945312 L 68.417969 275.339844 Z M 166.667969 177.089844 " clip-rule="nonzero"/></clipPath><clipPath id="1a8c1ab0e3"><path d="M 166.667969 177.089844 L 291.273438 301.699219 L 193.023438 399.945312 L 68.417969 275.339844 Z M 166.667969 177.089844 " clip-rule="nonzero"/></clipPath><clipPath id="87bfde3af6"><path d="M 179 205 L 198 205 L 198 224 L 179 224 Z M 179 205 " clip-rule="nonzero"/></clipPath><clipPath id="70e1ce5339"><path d="M 166.667969 177.089844 L 291.273438 301.699219 L 193.023438 399.945312 L 68.417969 275.339844 Z M 166.667969 177.089844 " clip-rule="nonzero"/></clipPath><clipPath id="a284f5a08c"><path d="M 166.667969 177.089844 L 291.273438 301.699219 L 193.023438 399.945312 L 68.417969 275.339844 Z M 166.667969 177.089844 " clip-rule="nonzero"/></clipPath><clipPath id="ce0785434b"><path d="M 135 205 L 154 205 L 154 224 L 135 224 Z M 135 205 " clip-rule="nonzero"/></clipPath><clipPath id="50145caf65"><path d="M 166.667969 177.089844 L 291.273438 301.699219 L 193.023438 399.945312 L 68.417969 275.339844 Z M 166.667969 177.089844 " clip-rule="nonzero"/></clipPath><clipPath id="ebf5085bb2"><path d="M 166.667969 177.089844 L 291.273438 301.699219 L 193.023438 399.945312 L 68.417969 275.339844 Z M 166.667969 177.089844 " clip-rule="nonzero"/></clipPath><clipPath id="a0f4078a97"><path d="M 189 230 L 213 230 L 213 239 L 189 239 Z M 189 230 " clip-rule="nonzero"/></clipPath><clipPath id="be304e3a72"><path d="M 166.667969 177.089844 L 291.273438 301.699219 L 193.023438 399.945312 L 68.417969 275.339844 Z M 166.667969 177.089844 " clip-rule="nonzero"/></clipPath><clipPath id="bf6a94b346"><path d="M 166.667969 177.089844 L 291.273438 301.699219 L 193.023438 399.945312 L 68.417969 275.339844 Z M 166.667969 177.089844 " clip-rule="nonzero"/></clipPath><clipPath id="025d97bc9c"><path d="M 121 230 L 145 230 L 145 240 L 121 240 Z M 121 230 " clip-rule="nonzero"/></clipPath><clipPath id="490eb8dde3"><path d="M 166.667969 177.089844 L 291.273438 301.699219 L 193.023438 399.945312 L 68.417969 275.339844 Z M 166.667969 177.089844 " clip-rule="nonzero"/></clipPath><clipPath id="de130bdaf9"><path d="M 166.667969 177.089844 L 291.273438 301.699219 L 193.023438 399.945312 L 68.417969 275.339844 Z M 166.667969 177.089844 " clip-rule="nonzero"/></clipPath></defs><path fill="#737373" d="M 242.421875 234.808594 L 132.367188 234.808594 C 121.042969 234.808594 111.707031 225.472656 111.707031 214.148438 L 111.707031 124.953125 C 111.707031 113.429688 121.042969 104.09375 132.367188 104.09375 L 242.421875 104.09375 C 253.941406 104.09375 263.28125 113.429688 263.28125 124.953125 L 263.28125 214.148438 C 263.28125 225.472656 253.941406 234.808594 242.421875 234.808594 Z M 136.140625 193.488281 C 135.746094 193.488281 135.347656 193.488281 134.949219 193.289062 C 133.164062 192.691406 132.367188 190.707031 133.164062 188.917969 L 140.3125 171.039062 L 140.3125 170.839844 L 153.226562 138.660156 C 153.226562 138.660156 153.226562 138.460938 153.226562 138.460938 C 153.425781 138.0625 153.625 137.667969 154.019531 137.46875 C 154.21875 137.070312 154.617188 136.871094 155.015625 136.671875 C 155.015625 136.671875 155.015625 136.671875 155.210938 136.671875 C 155.609375 136.472656 155.808594 136.472656 156.207031 136.472656 C 156.601562 136.472656 157 136.472656 157.398438 136.671875 C 157.398438 136.671875 157.597656 136.671875 157.597656 136.671875 C 157.992188 136.871094 158.390625 137.070312 158.589844 137.46875 C 158.988281 137.667969 159.1875 138.0625 159.382812 138.460938 C 159.382812 138.460938 159.382812 138.660156 159.382812 138.660156 L 172.296875 170.839844 L 172.296875 171.039062 L 179.449219 188.917969 C 180.042969 190.707031 179.25 192.691406 177.660156 193.289062 C 175.871094 193.886719 173.886719 193.089844 173.289062 191.5 L 166.933594 175.609375 L 145.675781 175.609375 L 139.320312 191.5 C 138.722656 192.691406 137.53125 193.488281 136.140625 193.488281 Z M 211.828125 193.6875 L 194.148438 193.6875 C 192.359375 193.6875 190.96875 192.296875 190.96875 190.507812 C 190.96875 188.523438 192.359375 187.132812 194.148438 187.132812 L 208.453125 187.132812 L 208.453125 142.832031 L 194.148438 142.832031 C 192.359375 142.832031 190.96875 141.441406 190.96875 139.652344 C 190.96875 137.667969 192.359375 136.277344 194.148438 136.277344 L 229.308594 136.277344 C 231.097656 136.277344 232.6875 137.667969 232.6875 139.652344 C 232.6875 141.441406 231.097656 142.832031 229.308594 142.832031 L 215.007812 142.832031 L 215.007812 187.132812 L 229.308594 187.132812 C 231.097656 187.132812 232.6875 188.523438 232.6875 190.507812 C 232.6875 192.296875 231.097656 193.6875 229.308594 193.6875 Z M 164.351562 168.855469 L 156.207031 148.792969 L 148.257812 168.855469 Z M 164.351562 168.855469 " fill-opacity="1" fill-rule="evenodd"/><path fill="#737373" d="M 169.914062 110.847656 C 168.125 110.847656 166.535156 109.257812 166.535156 107.472656 L 166.535156 32.578125 C 166.535156 30.792969 168.125 29.203125 169.914062 29.203125 C 171.699219 29.203125 173.089844 30.792969 173.089844 32.578125 L 173.089844 107.472656 C 173.089844 109.257812 171.699219 110.847656 169.914062 110.847656 Z M 169.914062 110.847656 " fill-opacity="1" fill-rule="evenodd"/><path fill="#737373" d="M 169.914062 35.957031 C 159.980469 35.957031 151.835938 27.8125 151.835938 17.878906 C 151.835938 8.144531 159.980469 0 169.914062 0 C 179.84375 0 187.792969 8.144531 187.792969 17.878906 C 187.792969 27.8125 179.84375 35.957031 169.914062 35.957031 Z M 169.914062 35.957031 " fill-opacity="1" fill-rule="evenodd"/><path fill="#737373" d="M 205.074219 110.847656 C 203.285156 110.847656 201.699219 109.257812 201.699219 107.472656 L 201.699219 76.480469 C 201.699219 74.695312 203.285156 73.105469 205.074219 73.105469 C 206.863281 73.105469 208.453125 74.695312 208.453125 76.480469 L 208.453125 107.472656 C 208.453125 109.257812 206.863281 110.847656 205.074219 110.847656 Z M 205.074219 110.847656 " fill-opacity="1" fill-rule="evenodd"/><path fill="#737373" d="M 205.074219 79.859375 C 195.140625 79.859375 187.195312 71.714844 187.195312 61.78125 C 187.195312 52.046875 195.140625 43.902344 205.074219 43.902344 C 215.007812 43.902344 222.953125 52.046875 222.953125 61.78125 C 222.953125 71.714844 215.007812 79.859375 205.074219 79.859375 Z M 205.074219 79.859375 " fill-opacity="1" fill-rule="evenodd"/><path fill="#737373" d="M 240.234375 110.847656 C 238.449219 110.847656 236.859375 109.257812 236.859375 107.472656 L 236.859375 59 C 236.859375 49.265625 244.804688 41.320312 254.539062 41.320312 L 275.597656 41.320312 C 277.382812 41.320312 278.972656 42.910156 278.972656 44.695312 C 278.972656 46.484375 277.382812 48.074219 275.597656 48.074219 L 254.539062 48.074219 C 248.578125 48.074219 243.613281 52.839844 243.613281 59 L 243.613281 107.472656 C 243.613281 109.257812 242.023438 110.847656 240.234375 110.847656 Z M 240.234375 110.847656 " fill-opacity="1" fill-rule="evenodd"/><path fill="#737373" d="M 290.296875 62.574219 C 280.363281 62.574219 272.21875 54.628906 272.21875 44.695312 C 272.21875 34.765625 280.363281 26.816406 290.296875 26.816406 C 300.230469 26.816406 308.175781 34.765625 308.175781 44.695312 C 308.175781 54.628906 300.230469 62.574219 290.296875 62.574219 Z M 290.296875 62.574219 " fill-opacity="1" fill-rule="evenodd"/><path fill="#737373" d="M 134.75 110.847656 C 132.765625 110.847656 131.375 109.257812 131.375 107.472656 L 131.375 59 C 131.375 52.839844 126.40625 48.074219 120.449219 48.074219 L 99.390625 48.074219 C 97.40625 48.074219 96.015625 46.484375 96.015625 44.695312 C 96.015625 42.910156 97.40625 41.320312 99.390625 41.320312 L 120.449219 41.320312 C 130.183594 41.320312 137.929688 49.265625 137.929688 59 L 137.929688 107.472656 C 137.929688 109.257812 136.539062 110.847656 134.75 110.847656 Z M 134.75 110.847656 " fill-opacity="1" fill-rule="evenodd"/><path fill="#737373" d="M 84.691406 62.574219 C 74.757812 62.574219 66.8125 54.628906 66.8125 44.695312 C 66.8125 34.765625 74.757812 26.816406 84.691406 26.816406 C 94.625 26.816406 102.570312 34.765625 102.570312 44.695312 C 102.570312 54.628906 94.625 62.574219 84.691406 62.574219 Z M 84.691406 62.574219 " fill-opacity="1" fill-rule="evenodd"/><path fill="#737373" d="M 322.28125 136.871094 L 259.902344 136.871094 C 258.113281 136.871094 256.527344 135.28125 256.527344 133.496094 C 256.527344 131.707031 258.113281 130.316406 259.902344 130.316406 L 322.28125 130.316406 C 324.066406 130.316406 325.457031 131.707031 325.457031 133.496094 C 325.457031 135.28125 324.066406 136.871094 322.28125 136.871094 Z M 322.28125 136.871094 " fill-opacity="1" fill-rule="evenodd"/><path fill="#737373" d="M 336.78125 151.570312 C 327.046875 151.570312 318.902344 143.425781 318.902344 133.496094 C 318.902344 123.5625 327.046875 115.617188 336.78125 115.617188 C 346.714844 115.617188 354.859375 123.5625 354.859375 133.496094 C 354.859375 143.425781 346.714844 151.570312 336.78125 151.570312 Z M 336.78125 151.570312 " fill-opacity="1" fill-rule="evenodd"/><path fill="#737373" d="M 278.574219 172.828125 L 259.902344 172.828125 C 258.113281 172.828125 256.527344 171.4375 256.527344 169.449219 C 256.527344 167.664062 258.113281 166.273438 259.902344 166.273438 L 278.574219 166.273438 C 280.363281 166.273438 281.753906 167.664062 281.753906 169.449219 C 281.753906 171.4375 280.363281 172.828125 278.574219 172.828125 Z M 278.574219 172.828125 " fill-opacity="1" fill-rule="evenodd"/><path fill="#737373" d="M 293.078125 187.527344 C 283.34375 187.527344 275.199219 179.382812 275.199219 169.449219 C 275.199219 159.71875 283.34375 151.570312 293.078125 151.570312 C 303.011719 151.570312 311.15625 159.71875 311.15625 169.449219 C 311.15625 179.382812 303.011719 187.527344 293.078125 187.527344 Z M 293.078125 187.527344 " fill-opacity="1" fill-rule="evenodd"/><path fill="#737373" d="M 322.28125 208.585938 L 259.902344 208.585938 C 258.113281 208.585938 256.527344 207.195312 256.527344 205.207031 C 256.527344 203.421875 258.113281 202.03125 259.902344 202.03125 L 322.28125 202.03125 C 324.066406 202.03125 325.457031 203.421875 325.457031 205.207031 C 325.457031 207.195312 324.066406 208.585938 322.28125 208.585938 Z M 322.28125 208.585938 " fill-opacity="1" fill-rule="evenodd"/><path fill="#737373" d="M 336.78125 223.285156 C 327.046875 223.285156 318.902344 215.140625 318.902344 205.207031 C 318.902344 195.472656 327.046875 187.328125 336.78125 187.328125 C 346.714844 187.328125 354.859375 195.472656 354.859375 205.207031 C 354.859375 215.140625 346.714844 223.285156 336.78125 223.285156 Z M 336.78125 223.285156 " fill-opacity="1" fill-rule="evenodd"/><path fill="#737373" d="M 169.914062 309.699219 C 168.125 309.699219 166.535156 308.308594 166.535156 306.519531 L 166.535156 231.628906 C 166.535156 229.644531 168.125 228.253906 169.914062 228.253906 C 171.699219 228.253906 173.089844 229.644531 173.089844 231.628906 L 173.089844 306.519531 C 173.089844 308.308594 171.699219 309.699219 169.914062 309.699219 Z M 169.914062 309.699219 " fill-opacity="1" fill-rule="evenodd"/><g clip-path="url(#c78a5b6d4c)"><path fill="#737373" d="M 169.914062 339.101562 C 159.980469 339.101562 151.835938 330.957031 151.835938 321.023438 C 151.835938 311.089844 159.980469 303.144531 169.914062 303.144531 C 179.84375 303.144531 187.792969 311.089844 187.792969 321.023438 C 187.792969 330.957031 179.84375 339.101562 169.914062 339.101562 Z M 169.914062 339.101562 " fill-opacity="1" fill-rule="evenodd"/></g><path fill="#737373" d="M 205.074219 265.796875 C 203.285156 265.796875 201.699219 264.40625 201.699219 262.621094 L 201.699219 231.628906 C 201.699219 229.644531 203.285156 228.253906 205.074219 228.253906 C 206.863281 228.253906 208.453125 229.644531 208.453125 231.628906 L 208.453125 262.621094 C 208.453125 264.40625 206.863281 265.796875 205.074219 265.796875 Z M 205.074219 265.796875 " fill-opacity="1" fill-rule="evenodd"/><path fill="#737373" d="M 205.074219 295.199219 C 195.140625 295.199219 187.195312 287.054688 187.195312 277.121094 C 187.195312 267.1875 195.140625 259.242188 205.074219 259.242188 C 215.007812 259.242188 222.953125 267.1875 222.953125 277.121094 C 222.953125 287.054688 215.007812 295.199219 205.074219 295.199219 Z M 205.074219 295.199219 " fill-opacity="1" fill-rule="evenodd"/><path fill="#737373" d="M 275.597656 297.582031 L 254.539062 297.582031 C 244.804688 297.582031 236.859375 289.835938 236.859375 280.101562 L 236.859375 231.628906 C 236.859375 229.644531 238.449219 228.253906 240.234375 228.253906 C 242.023438 228.253906 243.613281 229.644531 243.613281 231.628906 L 243.613281 280.101562 C 243.613281 286.058594 248.578125 291.027344 254.539062 291.027344 L 275.597656 291.027344 C 277.382812 291.027344 278.972656 292.417969 278.972656 294.402344 C 278.972656 296.191406 277.382812 297.582031 275.597656 297.582031 Z M 275.597656 297.582031 " fill-opacity="1" fill-rule="evenodd"/><path fill="#737373" d="M 290.296875 312.28125 C 280.363281 312.28125 272.21875 304.136719 272.21875 294.402344 C 272.21875 284.472656 280.363281 276.328125 290.296875 276.328125 C 300.230469 276.328125 308.175781 284.472656 308.175781 294.402344 C 308.175781 304.136719 300.230469 312.28125 290.296875 312.28125 Z M 290.296875 312.28125 " fill-opacity="1" fill-rule="evenodd"/><path fill="#737373" d="M 120.449219 297.582031 L 99.390625 297.582031 C 97.40625 297.582031 96.015625 296.191406 96.015625 294.402344 C 96.015625 292.417969 97.40625 291.027344 99.390625 291.027344 L 120.449219 291.027344 C 126.40625 291.027344 131.375 286.058594 131.375 280.101562 L 131.375 231.628906 C 131.375 229.644531 132.765625 228.253906 134.75 228.253906 C 136.539062 228.253906 137.929688 229.644531 137.929688 231.628906 L 137.929688 280.101562 C 137.929688 289.835938 130.183594 297.582031 120.449219 297.582031 Z M 120.449219 297.582031 " fill-opacity="1" fill-rule="evenodd"/><path fill="#737373" d="M 84.691406 312.28125 C 74.757812 312.28125 66.8125 304.136719 66.8125 294.402344 C 66.8125 284.472656 74.757812 276.328125 84.691406 276.328125 C 94.625 276.328125 102.570312 284.472656 102.570312 294.402344 C 102.570312 304.136719 94.625 312.28125 84.691406 312.28125 Z M 84.691406 312.28125 " fill-opacity="1" fill-rule="evenodd"/><path fill="#737373" d="M 115.085938 136.871094 L 52.707031 136.871094 C 50.917969 136.871094 49.332031 135.480469 49.332031 133.695312 C 49.332031 131.707031 50.917969 130.316406 52.707031 130.316406 L 115.085938 130.316406 C 116.871094 130.316406 118.261719 131.707031 118.261719 133.695312 C 118.261719 135.480469 116.871094 136.871094 115.085938 136.871094 Z M 115.085938 136.871094 " fill-opacity="1" fill-rule="evenodd"/><g clip-path="url(#302ecbc594)"><path fill="#737373" d="M 38.007812 151.570312 C 28.273438 151.570312 20.128906 143.625 20.128906 133.695312 C 20.128906 123.761719 28.273438 115.617188 38.007812 115.617188 C 47.941406 115.617188 56.085938 123.761719 56.085938 133.695312 C 56.085938 143.625 47.941406 151.570312 38.007812 151.570312 Z M 38.007812 151.570312 " fill-opacity="1" fill-rule="evenodd"/></g><path fill="#737373" d="M 115.085938 172.828125 L 96.410156 172.828125 C 94.625 172.828125 93.035156 171.4375 93.035156 169.648438 C 93.035156 167.863281 94.625 166.273438 96.410156 166.273438 L 115.085938 166.273438 C 116.871094 166.273438 118.261719 167.863281 118.261719 169.648438 C 118.261719 171.4375 116.871094 172.828125 115.085938 172.828125 Z M 115.085938 172.828125 " fill-opacity="1" fill-rule="evenodd"/><path fill="#737373" d="M 81.710938 187.527344 C 71.777344 187.527344 63.832031 179.582031 63.832031 169.648438 C 63.832031 159.71875 71.777344 151.570312 81.710938 151.570312 C 91.644531 151.570312 99.789062 159.71875 99.789062 169.648438 C 99.789062 179.582031 91.644531 187.527344 81.710938 187.527344 Z M 81.710938 187.527344 " fill-opacity="1" fill-rule="evenodd"/><path fill="#737373" d="M 115.085938 208.785156 L 52.707031 208.785156 C 50.917969 208.785156 49.332031 207.195312 49.332031 205.40625 C 49.332031 203.621094 50.917969 202.03125 52.707031 202.03125 L 115.085938 202.03125 C 116.871094 202.03125 118.261719 203.621094 118.261719 205.40625 C 118.261719 207.195312 116.871094 208.785156 115.085938 208.785156 Z M 115.085938 208.785156 " fill-opacity="1" fill-rule="evenodd"/><g clip-path="url(#f29cfef581)"><path fill="#737373" d="M 38.007812 223.285156 C 28.273438 223.285156 20.128906 215.339844 20.128906 205.40625 C 20.128906 195.472656 28.273438 187.527344 38.007812 187.527344 C 47.941406 187.527344 56.085938 195.472656 56.085938 205.40625 C 56.085938 215.339844 47.941406 223.285156 38.007812 223.285156 Z M 38.007812 223.285156 " fill-opacity="1" fill-rule="evenodd"/></g><g clip-path="url(#6e8be3b031)"><g clip-path="url(#a990939cf7)"><g clip-path="url(#6ea5c47528)"><path fill="#c8d4e6" d="M 152.816406 356.050781 C 147.652344 350.882812 143.683594 344.484375 141.339844 337.546875 L 135.644531 320.679688 L 129.660156 302.265625 C 127.632812 296.039062 131.054688 289.328125 137.277344 287.300781 C 138.476562 286.917969 139.691406 286.722656 140.90625 286.71875 C 144.046875 286.707031 147.125 287.976562 149.351562 290.199219 C 150.664062 291.511719 151.664062 293.144531 152.242188 294.917969 L 155.292969 304.304688 L 155.019531 237.144531 C 154.992188 230.609375 160.285156 225.265625 166.816406 225.222656 C 166.867188 225.21875 167.070312 225.222656 167.070312 225.222656 C 170.113281 225.265625 172.992188 226.496094 175.179688 228.679688 C 177.445312 230.949219 178.757812 234.09375 178.769531 237.308594 L 178.882812 264.328125 C 180.753906 260.253906 184.859375 257.410156 189.628906 257.390625 L 189.855469 257.394531 C 192.898438 257.4375 195.78125 258.667969 197.964844 260.851562 C 200.234375 263.121094 201.542969 266.265625 201.554688 269.480469 L 201.558594 270.589844 C 203.40625 266.492188 207.421875 263.585938 212.082031 263.480469 L 212.308594 263.476562 C 215.496094 263.464844 218.496094 264.699219 220.753906 266.957031 C 222.984375 269.1875 224.21875 272.148438 224.230469 275.300781 L 224.25 279.417969 C 226.09375 275.320312 230.113281 272.414062 234.777344 272.308594 C 234.863281 272.308594 234.949219 272.308594 235.039062 272.308594 C 238.214844 272.304688 241.199219 273.539062 243.445312 275.785156 C 245.671875 278.015625 246.90625 280.980469 246.921875 284.132812 L 247.066406 319.277344 L 247.074219 321.355469 C 247.074219 321.390625 247.058594 323.921875 246.875 325.246094 C 245.53125 340.753906 236.925781 354.003906 222.640625 362.5625 C 217.339844 365.738281 211.574219 367.878906 205.507812 368.921875 C 202.792969 369.402344 199.957031 369.652344 197.09375 369.664062 L 185.835938 369.710938 C 185.324219 369.714844 184.824219 369.707031 184.324219 369.695312 C 172.496094 369.390625 161.3125 364.542969 152.816406 356.050781 " fill-opacity="1" fill-rule="nonzero"/></g></g></g><g clip-path="url(#326c2ad8bf)"><g clip-path="url(#2727bdfcf4)"><g clip-path="url(#35cf578119)"><g clip-path="url(#632371d3bf)"><g clip-path="url(#84e87ba3bc)"><path fill="#1c567f" d="M 246.257812 272.972656 C 243.265625 269.980469 239.300781 268.335938 235.074219 268.328125 C 234.898438 268.324219 234.761719 268.328125 234.6875 268.328125 C 232.09375 268.386719 229.609375 269.074219 227.402344 270.320312 C 226.632812 268.015625 225.332031 265.90625 223.566406 264.140625 C 220.554688 261.128906 216.550781 259.480469 212.292969 259.496094 L 212.070312 259.496094 L 211.988281 259.5 C 209.007812 259.566406 206.167969 260.46875 203.726562 262.09375 C 202.960938 260.601562 201.972656 259.226562 200.777344 258.035156 C 197.867188 255.125 194.023438 253.484375 189.953125 253.414062 C 189.914062 253.414062 189.878906 253.410156 189.835938 253.410156 L 189.613281 253.410156 C 187.183594 253.421875 184.878906 253.980469 182.824219 254.96875 L 182.75 237.292969 C 182.734375 233.035156 180.996094 228.871094 177.992188 225.863281 C 175.070312 222.945312 171.214844 221.300781 167.128906 221.242188 L 166.984375 221.238281 L 166.9375 221.238281 C 166.886719 221.238281 166.835938 221.238281 166.789062 221.238281 C 158.0625 221.300781 151.003906 228.433594 151.039062 237.164062 L 151.242188 286.53125 C 148.371094 284.09375 144.664062 282.722656 140.890625 282.738281 C 139.269531 282.746094 137.652344 283.003906 136.085938 283.503906 L 136.066406 283.507812 L 136.046875 283.515625 C 127.734375 286.21875 123.171875 295.183594 125.871094 303.496094 L 131.859375 321.910156 L 131.886719 321.996094 L 137.566406 338.816406 C 140.105469 346.335938 144.40625 353.265625 150 358.863281 C 159.222656 368.085938 171.371094 373.34375 184.210938 373.675781 L 184.234375 373.675781 C 184.773438 373.6875 185.308594 373.695312 185.824219 373.691406 L 185.839844 373.695312 L 185.851562 373.695312 L 197.109375 373.644531 C 200.191406 373.632812 203.25 373.363281 206.199219 372.84375 C 212.746094 371.714844 218.964844 369.40625 224.6875 365.976562 C 240.078125 356.757812 249.355469 342.449219 250.835938 325.664062 C 251.046875 323.972656 251.054688 321.382812 251.054688 321.355469 L 251.054688 321.335938 L 251.046875 319.253906 L 251.011719 311.230469 L 250.902344 284.117188 C 250.882812 279.90625 249.234375 275.949219 246.257812 272.972656 Z M 240.628906 278.601562 C 242.050781 280.023438 242.933594 281.980469 242.941406 284.148438 L 243.050781 311.265625 L 243.085938 319.296875 L 243.09375 321.375 C 243.097656 322.070312 243.03125 324.121094 242.921875 324.785156 C 241.644531 339.96875 233.019531 351.707031 220.597656 359.148438 C 215.828125 362.003906 210.511719 364.023438 204.832031 365 C 202.3125 365.445312 199.71875 365.671875 197.078125 365.683594 L 185.820312 365.730469 C 185.351562 365.730469 184.882812 365.726562 184.414062 365.714844 C 173.347656 365.429688 163.160156 360.761719 155.632812 353.234375 C 150.957031 348.5625 147.308594 342.785156 145.109375 336.269531 L 139.429688 319.449219 L 133.445312 301.035156 C 132.097656 296.890625 134.363281 292.433594 138.507812 291.085938 C 139.3125 290.832031 140.121094 290.703125 140.925781 290.699219 C 143.039062 290.691406 145.0625 291.539062 146.539062 293.015625 C 147.390625 293.867188 148.058594 294.929688 148.457031 296.152344 L 153.492188 311.632812 L 153.773438 312.496094 C 153.929688 312.980469 154.175781 313.371094 154.476562 313.671875 C 155.015625 314.210938 155.734375 314.464844 156.449219 314.460938 C 157.882812 314.453125 159.3125 313.425781 159.304688 311.609375 L 159 237.128906 C 158.980469 232.773438 162.503906 229.222656 166.863281 229.203125 C 166.910156 229.199219 166.960938 229.203125 167.011719 229.203125 C 169.101562 229.234375 170.980469 230.109375 172.363281 231.496094 C 173.855469 232.988281 174.78125 235.070312 174.789062 237.324219 L 175.042969 299.1875 C 175.046875 300.132812 175.433594 300.992188 176.054688 301.613281 C 176.65625 302.203125 177.46875 302.574219 178.363281 302.605469 C 178.402344 302.605469 178.441406 302.605469 178.480469 302.609375 C 180.382812 302.601562 181.914062 300.914062 181.910156 298.996094 L 181.785156 269.296875 C 181.765625 264.945312 185.289062 261.390625 189.648438 261.371094 C 189.695312 261.371094 189.75 261.371094 189.796875 261.375 C 191.886719 261.40625 193.765625 262.28125 195.148438 263.664062 C 196.640625 265.160156 197.566406 267.242188 197.574219 269.496094 L 197.710938 303.214844 C 197.71875 304.160156 198.105469 305.015625 198.726562 305.640625 C 199.324219 306.226562 200.136719 306.601562 201.035156 306.628906 C 201.070312 306.632812 201.113281 306.632812 201.148438 306.628906 C 203.050781 306.621094 204.582031 304.9375 204.574219 303.019531 L 204.464844 275.644531 C 204.449219 271.300781 207.828125 267.558594 212.171875 267.457031 C 212.222656 267.457031 212.273438 267.457031 212.324219 267.457031 C 214.515625 267.449219 216.5 268.332031 217.9375 269.769531 C 219.359375 271.191406 220.242188 273.152344 220.25 275.320312 L 220.386719 307.925781 C 220.390625 308.867188 220.773438 309.71875 221.390625 310.339844 C 222.015625 310.964844 222.878906 311.347656 223.832031 311.34375 C 225.726562 311.335938 227.257812 309.796875 227.246094 307.898438 L 227.152344 284.476562 C 227.136719 280.128906 230.519531 276.386719 234.867188 276.289062 C 234.914062 276.289062 234.964844 276.289062 235.011719 276.289062 C 237.207031 276.28125 239.191406 277.164062 240.628906 278.601562 " fill-opacity="1" fill-rule="nonzero"/></g></g></g></g></g><g clip-path="url(#19aebf9570)"><g clip-path="url(#30427bf2b7)"><g clip-path="url(#1a8c1ab0e3)"><path fill="#1c567f" d="M 169.667969 196.292969 C 168.898438 195.527344 167.875 195.105469 166.789062 195.105469 C 166.78125 195.105469 166.777344 195.105469 166.769531 195.105469 C 164.515625 195.117188 162.6875 196.960938 162.695312 199.21875 L 162.796875 214.4375 C 162.800781 215.53125 163.234375 216.558594 164.007812 217.328125 C 164.78125 218.09375 165.804688 218.511719 166.890625 218.511719 C 166.894531 218.511719 166.902344 218.511719 166.90625 218.511719 C 168 218.507812 169.027344 218.078125 169.796875 217.304688 C 170.566406 216.527344 170.988281 215.496094 170.984375 214.402344 L 170.878906 199.183594 C 170.875 198.089844 170.445312 197.0625 169.667969 196.292969 " fill-opacity="1" fill-rule="nonzero"/></g></g></g><g clip-path="url(#87bfde3af6)"><g clip-path="url(#70e1ce5339)"><g clip-path="url(#a284f5a08c)"><path fill="#1c567f" d="M 196.386719 212.574219 C 197.976562 210.972656 197.964844 208.375 196.363281 206.789062 C 194.761719 205.199219 192.164062 205.210938 190.574219 206.8125 L 180.789062 216.742188 C 179.199219 218.347656 179.210938 220.941406 180.8125 222.53125 C 181.609375 223.320312 182.648438 223.714844 183.691406 223.714844 C 184.746094 223.714844 185.800781 223.3125 186.601562 222.507812 L 196.386719 212.574219 " fill-opacity="1" fill-rule="nonzero"/></g></g></g><g clip-path="url(#ce0785434b)"><g clip-path="url(#50145caf65)"><g clip-path="url(#ebf5085bb2)"><path fill="#1c567f" d="M 142.847656 206.8125 C 141.257812 205.210938 138.664062 205.199219 137.0625 206.789062 C 135.457031 208.378906 135.449219 210.972656 137.035156 212.574219 L 146.824219 222.507812 C 147.625 223.3125 148.675781 223.714844 149.730469 223.714844 C 150.773438 223.71875 151.816406 223.320312 152.613281 222.53125 C 154.214844 220.941406 154.222656 218.347656 152.636719 216.746094 L 142.847656 206.8125 " fill-opacity="1" fill-rule="nonzero"/></g></g></g><g clip-path="url(#a0f4078a97)"><g clip-path="url(#be304e3a72)"><g clip-path="url(#bf6a94b346)"><path fill="#1c567f" d="M 211.269531 231.667969 C 210.492188 230.898438 209.46875 230.488281 208.367188 230.480469 L 193.148438 230.585938 C 192.054688 230.589844 191.03125 231.019531 190.257812 231.796875 C 189.488281 232.570312 189.070312 233.601562 189.074219 234.695312 C 189.082031 236.945312 190.917969 238.769531 193.167969 238.769531 C 193.171875 238.769531 193.179688 238.769531 193.183594 238.769531 L 208.402344 238.667969 C 210.660156 238.65625 212.488281 236.8125 212.480469 234.558594 C 212.472656 233.464844 212.046875 232.4375 211.269531 231.667969 " fill-opacity="1" fill-rule="nonzero"/></g></g></g><g clip-path="url(#025d97bc9c)"><g clip-path="url(#490eb8dde3)"><g clip-path="url(#de130bdaf9)"><path fill="#1c567f" d="M 140.78125 230.769531 C 140.777344 230.769531 140.769531 230.769531 140.765625 230.769531 L 125.542969 230.871094 C 124.453125 230.878906 123.425781 231.308594 122.65625 232.082031 C 121.886719 232.859375 121.464844 233.890625 121.46875 234.984375 C 121.472656 236.074219 121.902344 237.101562 122.679688 237.871094 C 123.453125 238.636719 124.472656 239.058594 125.5625 239.058594 C 125.570312 239.058594 125.574219 239.058594 125.582031 239.058594 L 140.800781 238.953125 C 141.894531 238.949219 142.917969 238.519531 143.6875 237.746094 C 144.457031 236.96875 144.878906 235.9375 144.875 234.847656 C 144.871094 233.753906 144.441406 232.726562 143.664062 231.957031 C 142.894531 231.191406 141.871094 230.769531 140.78125 230.769531 " fill-opacity="1" fill-rule="nonzero"/></g></g></g></svg>