<svg xmlns="http://www.w3.org/2000/svg" xmlns:xlink="http://www.w3.org/1999/xlink" width="500" zoomAndPan="magnify" viewBox="0 0 375 119.999999" height="160" preserveAspectRatio="xMidYMid meet" version="1.0"><defs><g/><clipPath id="771ad45851"><path d="M 30 15.585938 L 39 15.585938 L 39 24 L 30 24 Z M 30 15.585938 " clip-rule="nonzero"/></clipPath><clipPath id="4cb61028f8"><path d="M 67 41 L 75.75 41 L 75.75 50 L 67 50 Z M 67 41 " clip-rule="nonzero"/></clipPath><clipPath id="5c4dc906c3"><path d="M 67 57 L 75.75 57 L 75.75 66 L 67 66 Z M 67 57 " clip-rule="nonzero"/></clipPath><clipPath id="9185986254"><path d="M 30 82 L 39 82 L 39 90.585938 L 30 90.585938 Z M 30 82 " clip-rule="nonzero"/></clipPath><clipPath id="9f27aaa5c4"><path d="M 1.5 41 L 10 41 L 10 50 L 1.5 50 Z M 1.5 41 " clip-rule="nonzero"/></clipPath><clipPath id="828e65cb56"><path d="M 1.5 57 L 10 57 L 10 66 L 1.5 66 Z M 1.5 57 " clip-rule="nonzero"/></clipPath><clipPath id="8d1b73788e"><path d="M 25 65 L 52 65 L 52 98 L 25 98 Z M 25 65 " clip-rule="nonzero"/></clipPath><clipPath id="8a509ca30b"><path d="M 33.945312 54.777344 L 61.523438 82.355469 L 39.777344 104.101562 L 12.203125 76.523438 Z M 33.945312 54.777344 " clip-rule="nonzero"/></clipPath><clipPath id="942eee66e2"><path d="M 33.945312 54.777344 L 61.523438 82.355469 L 39.777344 104.101562 L 12.203125 76.523438 Z M 33.945312 54.777344 " clip-rule="nonzero"/></clipPath><clipPath id="dc58c16e6b"><path d="M 24 64 L 53 64 L 53 99 L 24 99 Z M 24 64 " clip-rule="nonzero"/></clipPath><clipPath id="47a85b49fa"><path d="M 33.945312 54.777344 L 61.523438 82.355469 L 39.777344 104.101562 L 12.203125 76.523438 Z M 33.945312 54.777344 " clip-rule="nonzero"/></clipPath><clipPath id="fd6a093352"><path d="M 33.945312 54.777344 L 61.523438 82.355469 L 39.777344 104.101562 L 12.203125 76.523438 Z M 33.945312 54.777344 " clip-rule="nonzero"/></clipPath><clipPath id="4c5f1b63ab"><path d="M 36.347656 60.730469 L 59.785156 84.167969 L 39.601562 104.351562 L 16.164062 80.914062 Z M 36.347656 60.730469 " clip-rule="nonzero"/></clipPath><clipPath id="127a9d7545"><path d="M 36.347656 60.730469 L 59.777344 84.160156 L 39.59375 104.34375 L 16.164062 80.914062 Z M 36.347656 60.730469 " clip-rule="nonzero"/></clipPath><clipPath id="030aab384f"><path d="M 33 58 L 35 58 L 35 64 L 33 64 Z M 33 58 " clip-rule="nonzero"/></clipPath><clipPath id="61c56d0550"><path d="M 33.945312 54.777344 L 61.523438 82.355469 L 39.777344 104.101562 L 12.203125 76.523438 Z M 33.945312 54.777344 " clip-rule="nonzero"/></clipPath><clipPath id="2a58ab20ed"><path d="M 33.945312 54.777344 L 61.523438 82.355469 L 39.777344 104.101562 L 12.203125 76.523438 Z M 33.945312 54.777344 " clip-rule="nonzero"/></clipPath><clipPath id="8c8cc52134"><path d="M 36 61 L 41 61 L 41 66 L 36 66 Z M 36 61 " clip-rule="nonzero"/></clipPath><clipPath id="f813dcffbd"><path d="M 33.945312 54.777344 L 61.523438 82.355469 L 39.777344 104.101562 L 12.203125 76.523438 Z M 33.945312 54.777344 " clip-rule="nonzero"/></clipPath><clipPath id="0cfc3ebac7"><path d="M 33.945312 54.777344 L 61.523438 82.355469 L 39.777344 104.101562 L 12.203125 76.523438 Z M 33.945312 54.777344 " clip-rule="nonzero"/></clipPath><clipPath id="190b79868f"><path d="M 27 61 L 32 61 L 32 66 L 27 66 Z M 27 61 " clip-rule="nonzero"/></clipPath><clipPath id="77325ec833"><path d="M 33.945312 54.777344 L 61.523438 82.355469 L 39.777344 104.101562 L 12.203125 76.523438 Z M 33.945312 54.777344 " clip-rule="nonzero"/></clipPath><clipPath id="41f400812f"><path d="M 33.945312 54.777344 L 61.523438 82.355469 L 39.777344 104.101562 L 12.203125 76.523438 Z M 33.945312 54.777344 " clip-rule="nonzero"/></clipPath><clipPath id="0c9774d25f"><path d="M 38 66 L 45 66 L 45 69 L 38 69 Z M 38 66 " clip-rule="nonzero"/></clipPath><clipPath id="5267d1aa58"><path d="M 33.945312 54.777344 L 61.523438 82.355469 L 39.777344 104.101562 L 12.203125 76.523438 Z M 33.945312 54.777344 " clip-rule="nonzero"/></clipPath><clipPath id="3ff8541f7d"><path d="M 33.945312 54.777344 L 61.523438 82.355469 L 39.777344 104.101562 L 12.203125 76.523438 Z M 33.945312 54.777344 " clip-rule="nonzero"/></clipPath><clipPath id="90e8fdfde5"><path d="M 23 66 L 30 66 L 30 69 L 23 69 Z M 23 66 " clip-rule="nonzero"/></clipPath><clipPath id="cd45a52c86"><path d="M 33.945312 54.777344 L 61.523438 82.355469 L 39.777344 104.101562 L 12.203125 76.523438 Z M 33.945312 54.777344 " clip-rule="nonzero"/></clipPath><clipPath id="22441e10ca"><path d="M 33.945312 54.777344 L 61.523438 82.355469 L 39.777344 104.101562 L 12.203125 76.523438 Z M 33.945312 54.777344 " clip-rule="nonzero"/></clipPath></defs><g fill="#1c567f" fill-opacity="1"><g transform="translate(69.401072, 83.502313)"><g><path d="M 60.21875 -51.0625 L 42.78125 -20.234375 L 34.6875 -20.625 L 21.578125 -49.140625 L 13.296875 -2.796875 L 4.328125 -4.4375 L 15.21875 -65.03125 L 23.703125 -66.09375 L 39.3125 -32.46875 L 58.578125 -66.484375 L 66.953125 -65.03125 L 77.9375 -4.4375 L 68.984375 -2.796875 Z M 60.21875 -51.0625 "/></g></g></g><g fill="#1c567f" fill-opacity="1"><g transform="translate(151.67523, 83.502313)"><g><path d="M 8.484375 -5.78125 L 4.8125 -10.890625 L 9.4375 -45.1875 L 13.484375 -49.03125 L 41.71875 -51.34375 L 46.15625 -48.9375 L 54.34375 -32.75 L 51.15625 -26.296875 L 21.203125 -20.046875 L 19.265625 -28.8125 L 43.453125 -34.015625 L 39.40625 -42 L 17.828125 -40.375 L 14.359375 -13.875 L 47.5 -7.703125 L 45.765625 1.15625 Z M 8.484375 -5.78125 "/></g></g></g><g fill="#1c567f" fill-opacity="1"><g transform="translate(206.974246, 83.502313)"><g><path d="M 4.8125 -5.96875 L 9.25 -39.21875 L 14.453125 -43.0625 L 42.78125 -38.53125 L 41.234375 -60.125 L 50.390625 -60.703125 L 53.765625 -10.015625 L 49.71875 -5.203125 L 9.734375 -0.859375 Z M 14.546875 -10.5 L 44.421875 -13.6875 L 43.359375 -29.28125 L 17.625 -33.4375 Z M 14.546875 -10.5 "/></g></g></g><g fill="#1c567f" fill-opacity="1"><g transform="translate(265.548812, 83.502313)"><g><path d="M 4.8125 -5.96875 L 9.25 -39.21875 L 14.453125 -43.0625 L 42.78125 -38.53125 L 41.234375 -60.125 L 50.390625 -60.703125 L 53.765625 -10.015625 L 49.71875 -5.203125 L 9.734375 -0.859375 Z M 14.546875 -10.5 L 44.421875 -13.6875 L 43.359375 -29.28125 L 17.625 -33.4375 Z M 14.546875 -10.5 "/></g></g></g><g fill="#1c567f" fill-opacity="1"><g transform="translate(324.123379, 83.502313)"><g><path d="M 0.96875 -1.4375 L 17.25 -21.203125 L 0.96875 -40.953125 L 8 -46.734375 L 23.21875 -28.328125 L 42.203125 -51.34375 L 49.140625 -45.578125 L 8 4.328125 Z M 0.96875 -1.4375 "/></g></g></g><g fill="#737373" fill-opacity="1"><g transform="translate(127.899342, 101.943762)"><g><path d="M 3.265625 0 L 1.71875 0 L 0.328125 -10.109375 L 1.421875 -10.109375 L 2.609375 -1.5 L 3.734375 -10.09375 L 4.84375 -10.09375 L 5.96875 -1.484375 L 7.109375 -10.109375 L 8.078125 -10.109375 L 6.71875 0 L 5.21875 0 L 4.265625 -6.859375 Z M 3.265625 0 "/></g></g></g><g fill="#737373" fill-opacity="1"><g transform="translate(142.091457, 101.943762)"><g><path d="M 4.171875 -5.625 L 4.171875 -4.625 L 1.703125 -4.625 L 1.703125 -1.03125 L 4.734375 -1.03125 L 4.734375 0 L 0.578125 0 L 0.578125 -10.109375 L 4.734375 -10.109375 L 4.734375 -9.078125 L 1.703125 -9.078125 L 1.703125 -5.625 Z M 4.171875 -5.625 "/></g></g></g><g fill="#737373" fill-opacity="1"><g transform="translate(153.064029, 101.943762)"><g><path d="M 1.71875 -2.03125 L 1.328125 0 L 0.28125 0 L 2.21875 -10.109375 L 3.859375 -10.109375 L 5.796875 0 L 4.65625 0 L 4.28125 -2.03125 Z M 1.859375 -3 L 4.109375 -3 L 2.96875 -8.828125 Z M 1.859375 -3 "/></g></g></g><g fill="#737373" fill-opacity="1"><g transform="translate(164.931712, 101.943762)"><g><path d="M 1.421875 -10.109375 L 3.078125 -1.3125 L 4.703125 -10.109375 L 5.75 -10.109375 L 3.859375 0 L 2.1875 0 L 0.28125 -10.109375 Z M 1.421875 -10.109375 "/></g></g></g><g fill="#737373" fill-opacity="1"><g transform="translate(176.741647, 101.943762)"><g><path d="M 1.703125 -10.109375 L 1.703125 0 L 0.578125 0 L 0.578125 -10.109375 Z M 1.703125 -10.109375 "/></g></g></g><g fill="#737373" fill-opacity="1"><g transform="translate(184.797853, 101.943762)"><g><path d="M 1.578125 0 L 0.5625 0 L 0.5625 -10.109375 L 2 -10.109375 L 4.328125 -2.796875 L 4.328125 -10.109375 L 5.328125 -10.109375 L 5.328125 0 L 4.15625 0 L 1.578125 -8.171875 Z M 1.578125 0 "/></g></g></g><g fill="#737373" fill-opacity="1"><g transform="translate(196.477852, 101.943762)"><g><path d="M 2.75 -10.203125 C 3.53125 -10.203125 4.101562 -9.972656 4.46875 -9.515625 C 4.84375 -9.054688 5.03125 -8.441406 5.03125 -7.671875 L 5.03125 -6.796875 L 3.96875 -6.796875 L 3.96875 -7.71875 C 3.96875 -8.1875 3.875 -8.546875 3.6875 -8.796875 C 3.5 -9.054688 3.195312 -9.1875 2.78125 -9.1875 C 2.382812 -9.1875 2.085938 -9.054688 1.890625 -8.796875 C 1.703125 -8.546875 1.609375 -8.1875 1.609375 -7.71875 L 1.609375 -2.375 C 1.609375 -1.914062 1.703125 -1.554688 1.890625 -1.296875 C 2.085938 -1.046875 2.382812 -0.921875 2.78125 -0.921875 C 3.195312 -0.921875 3.5 -1.046875 3.6875 -1.296875 C 3.875 -1.554688 3.96875 -1.914062 3.96875 -2.375 L 3.96875 -4.40625 L 2.9375 -4.40625 L 2.9375 -5.40625 L 5.03125 -5.40625 L 5.03125 -2.4375 C 5.03125 -1.664062 4.84375 -1.050781 4.46875 -0.59375 C 4.101562 -0.132812 3.53125 0.09375 2.75 0.09375 C 1.988281 0.09375 1.421875 -0.132812 1.046875 -0.59375 C 0.671875 -1.050781 0.484375 -1.664062 0.484375 -2.4375 L 0.484375 -7.671875 C 0.484375 -8.054688 0.53125 -8.40625 0.625 -8.71875 C 0.71875 -9.03125 0.859375 -9.296875 1.046875 -9.515625 C 1.234375 -9.734375 1.46875 -9.898438 1.75 -10.015625 C 2.039062 -10.140625 2.375 -10.203125 2.75 -10.203125 Z M 2.75 -10.203125 "/></g></g></g><g fill="#737373" fill-opacity="1"><g transform="translate(207.782474, 101.943762)"><g/></g></g><g fill="#737373" fill-opacity="1"><g transform="translate(215.795364, 101.943762)"><g><path d="M 2.03125 0 L 2.03125 -9.078125 L 0.171875 -9.078125 L 0.171875 -10.109375 L 5.015625 -10.109375 L 5.015625 -9.078125 L 3.140625 -9.078125 L 3.140625 0 Z M 2.03125 0 "/></g></g></g><g fill="#737373" fill-opacity="1"><g transform="translate(226.767936, 101.943762)"><g><path d="M 1.703125 -4.546875 L 1.703125 0 L 0.578125 0 L 0.578125 -10.109375 L 1.703125 -10.109375 L 1.703125 -5.5625 L 4.1875 -5.5625 L 4.1875 -10.109375 L 5.3125 -10.109375 L 5.3125 0 L 4.1875 0 L 4.1875 -4.546875 Z M 1.703125 -4.546875 "/></g></g></g><g fill="#737373" fill-opacity="1"><g transform="translate(238.433504, 101.943762)"><g><path d="M 4.171875 -5.625 L 4.171875 -4.625 L 1.703125 -4.625 L 1.703125 -1.03125 L 4.734375 -1.03125 L 4.734375 0 L 0.578125 0 L 0.578125 -10.109375 L 4.734375 -10.109375 L 4.734375 -9.078125 L 1.703125 -9.078125 L 1.703125 -5.625 Z M 4.171875 -5.625 "/></g></g></g><g fill="#737373" fill-opacity="1"><g transform="translate(249.406076, 101.943762)"><g/></g></g><g fill="#737373" fill-opacity="1"><g transform="translate(257.418965, 101.943762)"><g><path d="M 4.03125 -5.40625 L 4.03125 -4.375 L 1.703125 -4.375 L 1.703125 0 L 0.578125 0 L 0.578125 -10.109375 L 4.59375 -10.109375 L 4.59375 -9.078125 L 1.703125 -9.078125 L 1.703125 -5.40625 Z M 4.03125 -5.40625 "/></g></g></g><g fill="#737373" fill-opacity="1"><g transform="translate(268.10278, 101.943762)"><g><path d="M 1.640625 -2.375 C 1.640625 -1.914062 1.734375 -1.554688 1.921875 -1.296875 C 2.109375 -1.046875 2.410156 -0.921875 2.828125 -0.921875 C 3.234375 -0.921875 3.53125 -1.046875 3.71875 -1.296875 C 3.90625 -1.554688 4 -1.914062 4 -2.375 L 4 -10.109375 L 5.046875 -10.109375 L 5.046875 -2.4375 C 5.046875 -1.664062 4.863281 -1.046875 4.5 -0.578125 C 4.132812 -0.117188 3.5625 0.109375 2.78125 0.109375 C 2.007812 0.109375 1.441406 -0.117188 1.078125 -0.578125 C 0.710938 -1.046875 0.53125 -1.664062 0.53125 -2.4375 L 0.53125 -10.109375 L 1.640625 -10.109375 Z M 1.640625 -2.375 "/></g></g></g><g fill="#737373" fill-opacity="1"><g transform="translate(279.46516, 101.943762)"><g><path d="M 2.03125 0 L 2.03125 -9.078125 L 0.171875 -9.078125 L 0.171875 -10.109375 L 5.015625 -10.109375 L 5.015625 -9.078125 L 3.140625 -9.078125 L 3.140625 0 Z M 2.03125 0 "/></g></g></g><g fill="#737373" fill-opacity="1"><g transform="translate(290.437732, 101.943762)"><g><path d="M 1.640625 -2.375 C 1.640625 -1.914062 1.734375 -1.554688 1.921875 -1.296875 C 2.109375 -1.046875 2.410156 -0.921875 2.828125 -0.921875 C 3.234375 -0.921875 3.53125 -1.046875 3.71875 -1.296875 C 3.90625 -1.554688 4 -1.914062 4 -2.375 L 4 -10.109375 L 5.046875 -10.109375 L 5.046875 -2.4375 C 5.046875 -1.664062 4.863281 -1.046875 4.5 -0.578125 C 4.132812 -0.117188 3.5625 0.109375 2.78125 0.109375 C 2.007812 0.109375 1.441406 -0.117188 1.078125 -0.578125 C 0.710938 -1.046875 0.53125 -1.664062 0.53125 -2.4375 L 0.53125 -10.109375 L 1.640625 -10.109375 Z M 1.640625 -2.375 "/></g></g></g><g fill="#737373" fill-opacity="1"><g transform="translate(301.800112, 101.943762)"><g><path d="M 2.828125 -10.109375 C 3.628906 -10.109375 4.203125 -9.910156 4.546875 -9.515625 C 4.898438 -9.117188 5.078125 -8.546875 5.078125 -7.796875 L 5.078125 -6.96875 C 5.078125 -6.414062 4.972656 -5.960938 4.765625 -5.609375 C 4.566406 -5.265625 4.253906 -5.023438 3.828125 -4.890625 C 4.285156 -4.753906 4.609375 -4.503906 4.796875 -4.140625 C 4.992188 -3.785156 5.09375 -3.332031 5.09375 -2.78125 L 5.09375 -1.21875 C 5.09375 -0.988281 5.101562 -0.769531 5.125 -0.5625 C 5.144531 -0.363281 5.203125 -0.175781 5.296875 0 L 4.15625 0 C 4.09375 -0.144531 4.046875 -0.300781 4.015625 -0.46875 C 3.984375 -0.632812 3.96875 -0.890625 3.96875 -1.234375 L 3.96875 -2.8125 C 3.96875 -3.382812 3.835938 -3.773438 3.578125 -3.984375 C 3.328125 -4.203125 2.96875 -4.3125 2.5 -4.3125 L 1.703125 -4.3125 L 1.703125 0 L 0.578125 0 L 0.578125 -10.109375 Z M 2.546875 -5.34375 C 2.992188 -5.34375 3.34375 -5.4375 3.59375 -5.625 C 3.84375 -5.8125 3.96875 -6.179688 3.96875 -6.734375 L 3.96875 -7.6875 C 3.96875 -8.15625 3.878906 -8.503906 3.703125 -8.734375 C 3.523438 -8.960938 3.222656 -9.078125 2.796875 -9.078125 L 1.703125 -9.078125 L 1.703125 -5.34375 Z M 2.546875 -5.34375 "/></g></g></g><g fill="#737373" fill-opacity="1"><g transform="translate(313.263555, 101.943762)"><g><path d="M 4.171875 -5.625 L 4.171875 -4.625 L 1.703125 -4.625 L 1.703125 -1.03125 L 4.734375 -1.03125 L 4.734375 0 L 0.578125 0 L 0.578125 -10.109375 L 4.734375 -10.109375 L 4.734375 -9.078125 L 1.703125 -9.078125 L 1.703125 -5.625 Z M 4.171875 -5.625 "/></g></g></g><g fill="#1c567f" fill-opacity="1"><g transform="translate(351.025383, 95.024397)"><g><path d="M 7.9375 -5.125 L 8.234375 -3.546875 L 3.453125 -2.75 L 2.015625 0.40625 L 0.578125 -0.234375 L 6.140625 -12.375 L 7.578125 -12.40625 L 12.65625 -1.734375 L 11.234375 -1.046875 L 6.859375 -10.203125 L 4.25 -4.484375 Z M 7.9375 -5.125 "/></g></g></g><g fill="#1c567f" fill-opacity="1"><g transform="translate(366.896137, 95.024397)"><g><path d="M 1.078125 -0.3125 L 1.65625 -11.78125 L 3.234375 -11.703125 L 2.65625 -0.234375 Z M 1.078125 -0.3125 "/></g></g></g><path fill="#737373" d="M 50.710938 67.554688 L 26.355469 67.554688 C 23.847656 67.554688 21.78125 65.488281 21.78125 62.980469 L 21.78125 43.242188 C 21.78125 40.691406 23.847656 38.625 26.355469 38.625 L 50.710938 38.625 C 53.261719 38.625 55.328125 40.691406 55.328125 43.242188 L 55.328125 62.980469 C 55.328125 65.488281 53.261719 67.554688 50.710938 67.554688 Z M 27.191406 58.410156 C 27.101562 58.410156 27.015625 58.410156 26.925781 58.363281 C 26.53125 58.234375 26.355469 57.792969 26.53125 57.398438 L 28.113281 53.441406 L 28.113281 53.394531 L 30.972656 46.273438 C 30.972656 46.273438 30.972656 46.230469 30.972656 46.230469 C 31.015625 46.140625 31.058594 46.054688 31.148438 46.011719 C 31.191406 45.921875 31.277344 45.878906 31.367188 45.835938 C 31.367188 45.835938 31.367188 45.835938 31.410156 45.835938 C 31.5 45.789062 31.542969 45.789062 31.628906 45.789062 C 31.71875 45.789062 31.804688 45.789062 31.894531 45.835938 C 31.894531 45.835938 31.9375 45.835938 31.9375 45.835938 C 32.027344 45.878906 32.113281 45.921875 32.15625 46.011719 C 32.246094 46.054688 32.289062 46.140625 32.332031 46.230469 C 32.332031 46.230469 32.332031 46.273438 32.332031 46.273438 L 35.191406 53.394531 L 35.191406 53.441406 L 36.773438 57.398438 C 36.90625 57.792969 36.730469 58.234375 36.378906 58.363281 C 35.984375 58.496094 35.542969 58.320312 35.410156 57.96875 L 34.003906 54.453125 L 29.300781 54.453125 L 27.894531 57.96875 C 27.761719 58.234375 27.496094 58.410156 27.191406 58.410156 Z M 43.941406 58.453125 L 40.027344 58.453125 C 39.632812 58.453125 39.324219 58.144531 39.324219 57.75 C 39.324219 57.308594 39.632812 57 40.027344 57 L 43.191406 57 L 43.191406 47.199219 L 40.027344 47.199219 C 39.632812 47.199219 39.324219 46.890625 39.324219 46.492188 C 39.324219 46.054688 39.632812 45.746094 40.027344 45.746094 L 47.808594 45.746094 C 48.203125 45.746094 48.554688 46.054688 48.554688 46.492188 C 48.554688 46.890625 48.203125 47.199219 47.808594 47.199219 L 44.644531 47.199219 L 44.644531 57 L 47.808594 57 C 48.203125 57 48.554688 57.308594 48.554688 57.75 C 48.554688 58.144531 48.203125 58.453125 47.808594 58.453125 Z M 33.433594 52.957031 L 31.628906 48.515625 L 29.871094 52.957031 Z M 33.433594 52.957031 " fill-opacity="1" fill-rule="evenodd"/><path fill="#737373" d="M 34.664062 40.121094 C 34.269531 40.121094 33.917969 39.765625 33.917969 39.371094 L 33.917969 22.796875 C 33.917969 22.402344 34.269531 22.050781 34.664062 22.050781 C 35.058594 22.050781 35.367188 22.402344 35.367188 22.796875 L 35.367188 39.371094 C 35.367188 39.765625 35.058594 40.121094 34.664062 40.121094 Z M 34.664062 40.121094 " fill-opacity="1" fill-rule="evenodd"/><g clip-path="url(#771ad45851)"><path fill="#737373" d="M 34.664062 23.542969 C 32.464844 23.542969 30.664062 21.742188 30.664062 19.542969 C 30.664062 17.390625 32.464844 15.585938 34.664062 15.585938 C 36.863281 15.585938 38.621094 17.390625 38.621094 19.542969 C 38.621094 21.742188 36.863281 23.542969 34.664062 23.542969 Z M 34.664062 23.542969 " fill-opacity="1" fill-rule="evenodd"/></g><path fill="#737373" d="M 42.445312 40.121094 C 42.050781 40.121094 41.699219 39.765625 41.699219 39.371094 L 41.699219 32.511719 C 41.699219 32.117188 42.050781 31.765625 42.445312 31.765625 C 42.839844 31.765625 43.191406 32.117188 43.191406 32.511719 L 43.191406 39.371094 C 43.191406 39.765625 42.839844 40.121094 42.445312 40.121094 Z M 42.445312 40.121094 " fill-opacity="1" fill-rule="evenodd"/><path fill="#737373" d="M 42.445312 33.261719 C 40.246094 33.261719 38.488281 31.457031 38.488281 29.261719 C 38.488281 27.105469 40.246094 25.304688 42.445312 25.304688 C 44.644531 25.304688 46.402344 27.105469 46.402344 29.261719 C 46.402344 31.457031 44.644531 33.261719 42.445312 33.261719 Z M 42.445312 33.261719 " fill-opacity="1" fill-rule="evenodd"/><path fill="#737373" d="M 50.226562 40.121094 C 49.832031 40.121094 49.480469 39.765625 49.480469 39.371094 L 49.480469 28.644531 C 49.480469 26.492188 51.238281 24.730469 53.394531 24.730469 L 58.054688 24.730469 C 58.449219 24.730469 58.800781 25.082031 58.800781 25.480469 C 58.800781 25.875 58.449219 26.226562 58.054688 26.226562 L 53.394531 26.226562 C 52.074219 26.226562 50.972656 27.28125 50.972656 28.644531 L 50.972656 39.371094 C 50.972656 39.765625 50.621094 40.121094 50.226562 40.121094 Z M 50.226562 40.121094 " fill-opacity="1" fill-rule="evenodd"/><path fill="#737373" d="M 61.304688 29.4375 C 59.109375 29.4375 57.304688 27.675781 57.304688 25.480469 C 57.304688 23.28125 59.109375 21.523438 61.304688 21.523438 C 63.503906 21.523438 65.261719 23.28125 65.261719 25.480469 C 65.261719 27.675781 63.503906 29.4375 61.304688 29.4375 Z M 61.304688 29.4375 " fill-opacity="1" fill-rule="evenodd"/><path fill="#737373" d="M 26.882812 40.121094 C 26.441406 40.121094 26.136719 39.765625 26.136719 39.371094 L 26.136719 28.644531 C 26.136719 27.28125 25.035156 26.226562 23.714844 26.226562 L 19.054688 26.226562 C 18.617188 26.226562 18.308594 25.875 18.308594 25.480469 C 18.308594 25.082031 18.617188 24.730469 19.054688 24.730469 L 23.714844 24.730469 C 25.871094 24.730469 27.585938 26.492188 27.585938 28.644531 L 27.585938 39.371094 C 27.585938 39.765625 27.277344 40.121094 26.882812 40.121094 Z M 26.882812 40.121094 " fill-opacity="1" fill-rule="evenodd"/><path fill="#737373" d="M 15.804688 29.4375 C 13.605469 29.4375 11.847656 27.675781 11.847656 25.480469 C 11.847656 23.28125 13.605469 21.523438 15.804688 21.523438 C 18 21.523438 19.761719 23.28125 19.761719 25.480469 C 19.761719 27.675781 18 29.4375 15.804688 29.4375 Z M 15.804688 29.4375 " fill-opacity="1" fill-rule="evenodd"/><path fill="#737373" d="M 68.382812 45.878906 L 54.578125 45.878906 C 54.183594 45.878906 53.832031 45.527344 53.832031 45.132812 C 53.832031 44.734375 54.183594 44.429688 54.578125 44.429688 L 68.382812 44.429688 C 68.78125 44.429688 69.085938 44.734375 69.085938 45.132812 C 69.085938 45.527344 68.78125 45.878906 68.382812 45.878906 Z M 68.382812 45.878906 " fill-opacity="1" fill-rule="evenodd"/><g clip-path="url(#4cb61028f8)"><path fill="#737373" d="M 71.59375 49.132812 C 69.441406 49.132812 67.636719 47.328125 67.636719 45.132812 C 67.636719 42.933594 69.441406 41.175781 71.59375 41.175781 C 73.792969 41.175781 75.59375 42.933594 75.59375 45.132812 C 75.59375 47.328125 73.792969 49.132812 71.59375 49.132812 Z M 71.59375 49.132812 " fill-opacity="1" fill-rule="evenodd"/></g><path fill="#737373" d="M 58.710938 53.835938 L 54.578125 53.835938 C 54.183594 53.835938 53.832031 53.527344 53.832031 53.089844 C 53.832031 52.691406 54.183594 52.386719 54.578125 52.386719 L 58.710938 52.386719 C 59.109375 52.386719 59.414062 52.691406 59.414062 53.089844 C 59.414062 53.527344 59.109375 53.835938 58.710938 53.835938 Z M 58.710938 53.835938 " fill-opacity="1" fill-rule="evenodd"/><path fill="#737373" d="M 61.921875 57.089844 C 59.765625 57.089844 57.964844 55.285156 57.964844 53.089844 C 57.964844 50.933594 59.765625 49.132812 61.921875 49.132812 C 64.121094 49.132812 65.921875 50.933594 65.921875 53.089844 C 65.921875 55.285156 64.121094 57.089844 61.921875 57.089844 Z M 61.921875 57.089844 " fill-opacity="1" fill-rule="evenodd"/><path fill="#737373" d="M 68.382812 61.75 L 54.578125 61.75 C 54.183594 61.75 53.832031 61.441406 53.832031 61.003906 C 53.832031 60.605469 54.183594 60.300781 54.578125 60.300781 L 68.382812 60.300781 C 68.78125 60.300781 69.085938 60.605469 69.085938 61.003906 C 69.085938 61.441406 68.78125 61.75 68.382812 61.75 Z M 68.382812 61.75 " fill-opacity="1" fill-rule="evenodd"/><g clip-path="url(#5c4dc906c3)"><path fill="#737373" d="M 71.59375 65.003906 C 69.441406 65.003906 67.636719 63.199219 67.636719 61.003906 C 67.636719 58.847656 69.441406 57.046875 71.59375 57.046875 C 73.792969 57.046875 75.59375 58.847656 75.59375 61.003906 C 75.59375 63.199219 73.792969 65.003906 71.59375 65.003906 Z M 71.59375 65.003906 " fill-opacity="1" fill-rule="evenodd"/></g><path fill="#737373" d="M 34.664062 84.128906 C 34.269531 84.128906 33.917969 83.820312 33.917969 83.425781 L 33.917969 66.847656 C 33.917969 66.410156 34.269531 66.101562 34.664062 66.101562 C 35.058594 66.101562 35.367188 66.410156 35.367188 66.847656 L 35.367188 83.425781 C 35.367188 83.820312 35.058594 84.128906 34.664062 84.128906 Z M 34.664062 84.128906 " fill-opacity="1" fill-rule="evenodd"/><g clip-path="url(#9185986254)"><path fill="#737373" d="M 34.664062 90.632812 C 32.464844 90.632812 30.664062 88.832031 30.664062 86.632812 C 30.664062 84.433594 32.464844 82.675781 34.664062 82.675781 C 36.863281 82.675781 38.621094 84.433594 38.621094 86.632812 C 38.621094 88.832031 36.863281 90.632812 34.664062 90.632812 Z M 34.664062 90.632812 " fill-opacity="1" fill-rule="evenodd"/></g><path fill="#737373" d="M 42.445312 74.410156 C 42.050781 74.410156 41.699219 74.105469 41.699219 73.707031 L 41.699219 66.847656 C 41.699219 66.410156 42.050781 66.101562 42.445312 66.101562 C 42.839844 66.101562 43.191406 66.410156 43.191406 66.847656 L 43.191406 73.707031 C 43.191406 74.105469 42.839844 74.410156 42.445312 74.410156 Z M 42.445312 74.410156 " fill-opacity="1" fill-rule="evenodd"/><path fill="#737373" d="M 42.445312 80.917969 C 40.246094 80.917969 38.488281 79.117188 38.488281 76.917969 C 38.488281 74.71875 40.246094 72.960938 42.445312 72.960938 C 44.644531 72.960938 46.402344 74.71875 46.402344 76.917969 C 46.402344 79.117188 44.644531 80.917969 42.445312 80.917969 Z M 42.445312 80.917969 " fill-opacity="1" fill-rule="evenodd"/><path fill="#737373" d="M 58.054688 81.445312 L 53.394531 81.445312 C 51.238281 81.445312 49.480469 79.730469 49.480469 77.578125 L 49.480469 66.847656 C 49.480469 66.410156 49.832031 66.101562 50.226562 66.101562 C 50.621094 66.101562 50.972656 66.410156 50.972656 66.847656 L 50.972656 77.578125 C 50.972656 78.894531 52.074219 79.996094 53.394531 79.996094 L 58.054688 79.996094 C 58.449219 79.996094 58.800781 80.300781 58.800781 80.742188 C 58.800781 81.136719 58.449219 81.445312 58.054688 81.445312 Z M 58.054688 81.445312 " fill-opacity="1" fill-rule="evenodd"/><path fill="#737373" d="M 61.304688 84.699219 C 59.109375 84.699219 57.304688 82.894531 57.304688 80.742188 C 57.304688 78.542969 59.109375 76.742188 61.304688 76.742188 C 63.503906 76.742188 65.261719 78.542969 65.261719 80.742188 C 65.261719 82.894531 63.503906 84.699219 61.304688 84.699219 Z M 61.304688 84.699219 " fill-opacity="1" fill-rule="evenodd"/><path fill="#737373" d="M 23.714844 81.445312 L 19.054688 81.445312 C 18.617188 81.445312 18.308594 81.136719 18.308594 80.742188 C 18.308594 80.300781 18.617188 79.996094 19.054688 79.996094 L 23.714844 79.996094 C 25.035156 79.996094 26.136719 78.894531 26.136719 77.578125 L 26.136719 66.847656 C 26.136719 66.410156 26.441406 66.101562 26.882812 66.101562 C 27.277344 66.101562 27.585938 66.410156 27.585938 66.847656 L 27.585938 77.578125 C 27.585938 79.730469 25.871094 81.445312 23.714844 81.445312 Z M 23.714844 81.445312 " fill-opacity="1" fill-rule="evenodd"/><path fill="#737373" d="M 15.804688 84.699219 C 13.605469 84.699219 11.847656 82.894531 11.847656 80.742188 C 11.847656 78.542969 13.605469 76.742188 15.804688 76.742188 C 18 76.742188 19.761719 78.542969 19.761719 80.742188 C 19.761719 82.894531 18 84.699219 15.804688 84.699219 Z M 15.804688 84.699219 " fill-opacity="1" fill-rule="evenodd"/><path fill="#737373" d="M 22.53125 45.878906 L 8.726562 45.878906 C 8.328125 45.878906 7.976562 45.570312 7.976562 45.175781 C 7.976562 44.734375 8.328125 44.429688 8.726562 44.429688 L 22.53125 44.429688 C 22.925781 44.429688 23.234375 44.734375 23.234375 45.175781 C 23.234375 45.570312 22.925781 45.878906 22.53125 45.878906 Z M 22.53125 45.878906 " fill-opacity="1" fill-rule="evenodd"/><g clip-path="url(#9f27aaa5c4)"><path fill="#737373" d="M 5.472656 49.132812 C 3.316406 49.132812 1.515625 47.375 1.515625 45.175781 C 1.515625 42.976562 3.316406 41.175781 5.472656 41.175781 C 7.667969 41.175781 9.472656 42.976562 9.472656 45.175781 C 9.472656 47.375 7.667969 49.132812 5.472656 49.132812 Z M 5.472656 49.132812 " fill-opacity="1" fill-rule="evenodd"/></g><path fill="#737373" d="M 22.53125 53.835938 L 18.398438 53.835938 C 18 53.835938 17.648438 53.527344 17.648438 53.132812 C 17.648438 52.738281 18 52.386719 18.398438 52.386719 L 22.53125 52.386719 C 22.925781 52.386719 23.234375 52.738281 23.234375 53.132812 C 23.234375 53.527344 22.925781 53.835938 22.53125 53.835938 Z M 22.53125 53.835938 " fill-opacity="1" fill-rule="evenodd"/><path fill="#737373" d="M 15.144531 57.089844 C 12.945312 57.089844 11.1875 55.332031 11.1875 53.132812 C 11.1875 50.933594 12.945312 49.132812 15.144531 49.132812 C 17.34375 49.132812 19.144531 50.933594 19.144531 53.132812 C 19.144531 55.332031 17.34375 57.089844 15.144531 57.089844 Z M 15.144531 57.089844 " fill-opacity="1" fill-rule="evenodd"/><path fill="#737373" d="M 22.53125 61.792969 L 8.726562 61.792969 C 8.328125 61.792969 7.976562 61.441406 7.976562 61.046875 C 7.976562 60.652344 8.328125 60.300781 8.726562 60.300781 L 22.53125 60.300781 C 22.925781 60.300781 23.234375 60.652344 23.234375 61.046875 C 23.234375 61.441406 22.925781 61.792969 22.53125 61.792969 Z M 22.53125 61.792969 " fill-opacity="1" fill-rule="evenodd"/><g clip-path="url(#828e65cb56)"><path fill="#737373" d="M 5.472656 65.003906 C 3.316406 65.003906 1.515625 63.246094 1.515625 61.046875 C 1.515625 58.847656 3.316406 57.089844 5.472656 57.089844 C 7.667969 57.089844 9.472656 58.847656 9.472656 61.046875 C 9.472656 63.246094 7.667969 65.003906 5.472656 65.003906 Z M 5.472656 65.003906 " fill-opacity="1" fill-rule="evenodd"/></g><g clip-path="url(#8d1b73788e)"><g clip-path="url(#8a509ca30b)"><g clip-path="url(#942eee66e2)"><path fill="#c8d4e6" d="M 30.878906 94.386719 C 29.738281 93.242188 28.859375 91.824219 28.339844 90.289062 L 27.082031 86.558594 L 25.753906 82.480469 C 25.308594 81.105469 26.0625 79.617188 27.441406 79.171875 C 27.707031 79.085938 27.976562 79.042969 28.246094 79.042969 C 28.941406 79.039062 29.621094 79.320312 30.113281 79.8125 C 30.402344 80.101562 30.625 80.464844 30.753906 80.855469 L 31.429688 82.933594 L 31.367188 68.070312 C 31.363281 66.625 32.53125 65.441406 33.980469 65.429688 C 33.988281 65.429688 34.035156 65.429688 34.035156 65.429688 C 34.707031 65.441406 35.34375 65.714844 35.828125 66.195312 C 36.332031 66.699219 36.621094 67.394531 36.625 68.105469 L 36.648438 74.085938 C 37.0625 73.183594 37.972656 72.554688 39.027344 72.550781 L 39.078125 72.550781 C 39.75 72.5625 40.386719 72.832031 40.871094 73.316406 C 41.375 73.820312 41.664062 74.515625 41.667969 75.226562 L 41.667969 75.472656 C 42.074219 74.566406 42.964844 73.921875 43.996094 73.898438 L 44.046875 73.898438 C 44.753906 73.894531 45.417969 74.167969 45.914062 74.667969 C 46.410156 75.160156 46.683594 75.816406 46.683594 76.515625 L 46.6875 77.425781 C 47.097656 76.519531 47.988281 75.875 49.019531 75.851562 C 49.039062 75.851562 49.058594 75.851562 49.078125 75.851562 C 49.78125 75.851562 50.441406 76.125 50.9375 76.621094 C 51.429688 77.117188 51.703125 77.769531 51.707031 78.46875 L 51.738281 86.246094 L 51.742188 86.707031 C 51.742188 86.714844 51.738281 87.273438 51.695312 87.566406 C 51.398438 91 49.496094 93.933594 46.332031 95.828125 C 45.160156 96.53125 43.882812 97.003906 42.542969 97.234375 C 41.941406 97.339844 41.3125 97.394531 40.679688 97.398438 L 38.1875 97.410156 C 38.074219 97.410156 37.964844 97.40625 37.851562 97.40625 C 35.234375 97.335938 32.761719 96.265625 30.878906 94.386719 " fill-opacity="1" fill-rule="nonzero"/></g></g></g><g clip-path="url(#dc58c16e6b)"><g clip-path="url(#47a85b49fa)"><g clip-path="url(#fd6a093352)"><g clip-path="url(#4c5f1b63ab)"><g clip-path="url(#127a9d7545)"><path fill="#1c567f" d="M 51.558594 76 C 50.898438 75.335938 50.019531 74.972656 49.085938 74.972656 C 49.046875 74.972656 49.015625 74.972656 49 74.972656 C 48.425781 74.984375 47.875 75.136719 47.386719 75.410156 C 47.214844 74.902344 46.929688 74.433594 46.539062 74.042969 C 45.871094 73.378906 44.984375 73.011719 44.042969 73.015625 L 43.976562 73.015625 C 43.316406 73.03125 42.6875 73.230469 42.148438 73.589844 C 41.976562 73.261719 41.757812 72.957031 41.496094 72.695312 C 40.851562 72.050781 40 71.6875 39.097656 71.671875 C 39.089844 71.671875 39.082031 71.671875 39.074219 71.671875 L 39.050781 71.667969 L 39.023438 71.667969 C 38.484375 71.671875 37.976562 71.796875 37.519531 72.015625 L 37.503906 68.101562 C 37.5 67.160156 37.117188 66.238281 36.453125 65.574219 C 35.804688 64.925781 34.953125 64.5625 34.046875 64.550781 L 34.003906 64.550781 C 33.992188 64.550781 33.984375 64.550781 33.972656 64.550781 C 32.042969 64.5625 30.480469 66.140625 30.488281 68.074219 L 30.53125 79 C 29.894531 78.460938 29.078125 78.15625 28.242188 78.160156 C 27.882812 78.164062 27.523438 78.21875 27.179688 78.328125 L 27.171875 78.332031 L 27.167969 78.332031 C 25.328125 78.929688 24.320312 80.914062 24.917969 82.753906 L 26.242188 86.828125 L 26.25 86.847656 L 27.503906 90.570312 C 28.066406 92.234375 29.019531 93.769531 30.257812 95.007812 C 32.296875 97.046875 34.988281 98.210938 37.828125 98.285156 L 37.832031 98.285156 C 37.953125 98.289062 38.070312 98.289062 38.1875 98.289062 L 38.191406 98.289062 L 40.683594 98.28125 C 41.363281 98.277344 42.042969 98.214844 42.695312 98.101562 C 44.144531 97.851562 45.519531 97.339844 46.785156 96.582031 C 50.191406 94.542969 52.246094 91.375 52.574219 87.660156 C 52.621094 87.285156 52.621094 86.714844 52.621094 86.707031 L 52.621094 86.242188 L 52.613281 84.464844 L 52.589844 78.464844 C 52.582031 77.535156 52.21875 76.65625 51.558594 76 Z M 50.3125 77.246094 C 50.628906 77.558594 50.824219 77.992188 50.824219 78.472656 L 50.851562 84.472656 L 50.859375 86.25 L 50.859375 86.710938 C 50.859375 86.867188 50.847656 87.320312 50.820312 87.464844 C 50.539062 90.824219 48.628906 93.425781 45.878906 95.070312 C 44.824219 95.703125 43.648438 96.148438 42.390625 96.367188 C 41.835938 96.464844 41.261719 96.515625 40.675781 96.515625 L 38.183594 96.527344 C 38.082031 96.527344 37.976562 96.527344 37.875 96.523438 C 35.421875 96.460938 33.167969 95.429688 31.503906 93.761719 C 30.46875 92.726562 29.660156 91.449219 29.175781 90.007812 L 27.917969 86.285156 L 26.59375 82.210938 C 26.292969 81.292969 26.796875 80.304688 27.714844 80.007812 C 27.890625 79.953125 28.070312 79.921875 28.25 79.921875 C 28.714844 79.921875 29.164062 80.109375 29.492188 80.433594 C 29.679688 80.625 29.828125 80.859375 29.914062 81.128906 L 31.03125 84.554688 L 31.09375 84.746094 C 31.125 84.851562 31.179688 84.941406 31.246094 85.007812 C 31.367188 85.125 31.527344 85.183594 31.683594 85.179688 C 32 85.179688 32.316406 84.953125 32.316406 84.550781 L 32.25 68.066406 C 32.246094 67.101562 33.023438 66.316406 33.988281 66.3125 C 34 66.3125 34.011719 66.3125 34.023438 66.3125 C 34.484375 66.320312 34.898438 66.511719 35.207031 66.820312 C 35.535156 67.148438 35.742188 67.613281 35.742188 68.109375 L 35.800781 81.800781 C 35.800781 82.011719 35.886719 82.199219 36.023438 82.339844 C 36.15625 82.46875 36.335938 82.550781 36.535156 82.558594 C 36.542969 82.558594 36.550781 82.558594 36.558594 82.558594 C 36.980469 82.554688 37.320312 82.183594 37.320312 81.757812 L 37.292969 75.1875 C 37.289062 74.222656 38.066406 73.4375 39.03125 73.429688 C 39.042969 73.433594 39.054688 73.433594 39.0625 73.433594 C 39.527344 73.4375 39.941406 73.632812 40.25 73.941406 C 40.578125 74.269531 40.785156 74.730469 40.785156 75.230469 L 40.816406 82.691406 C 40.816406 82.902344 40.902344 83.089844 41.039062 83.230469 C 41.171875 83.359375 41.351562 83.441406 41.550781 83.449219 C 41.558594 83.449219 41.570312 83.449219 41.578125 83.449219 C 41.996094 83.445312 42.335938 83.074219 42.335938 82.648438 L 42.308594 76.589844 C 42.308594 75.628906 43.054688 74.800781 44.015625 74.777344 C 44.027344 74.777344 44.039062 74.777344 44.050781 74.777344 C 44.535156 74.777344 44.972656 74.972656 45.292969 75.289062 C 45.605469 75.605469 45.800781 76.039062 45.804688 76.519531 L 45.832031 83.734375 C 45.835938 83.941406 45.917969 84.132812 46.054688 84.269531 C 46.195312 84.40625 46.386719 84.492188 46.597656 84.492188 C 47.015625 84.488281 47.355469 84.148438 47.351562 83.730469 L 47.332031 78.546875 C 47.328125 77.582031 48.078125 76.753906 49.039062 76.734375 C 49.050781 76.734375 49.058594 76.734375 49.070312 76.734375 C 49.554688 76.730469 49.996094 76.925781 50.3125 77.246094 " fill-opacity="1" fill-rule="nonzero"/></g></g></g></g></g><g clip-path="url(#030aab384f)"><g clip-path="url(#61c56d0550)"><g clip-path="url(#2a58ab20ed)"><path fill="#1c567f" d="M 34.609375 59.03125 C 34.4375 58.859375 34.210938 58.765625 33.972656 58.765625 C 33.972656 58.765625 33.96875 58.765625 33.96875 58.765625 C 33.46875 58.769531 33.066406 59.175781 33.066406 59.675781 L 33.089844 63.046875 C 33.089844 63.285156 33.183594 63.515625 33.355469 63.683594 C 33.527344 63.855469 33.753906 63.945312 33.996094 63.945312 C 33.996094 63.945312 33.996094 63.945312 34 63.945312 C 34.242188 63.945312 34.46875 63.851562 34.636719 63.679688 C 34.808594 63.507812 34.902344 63.28125 34.902344 63.035156 L 34.878906 59.667969 C 34.878906 59.425781 34.78125 59.199219 34.609375 59.03125 " fill-opacity="1" fill-rule="nonzero"/></g></g></g><g clip-path="url(#8c8cc52134)"><g clip-path="url(#f813dcffbd)"><g clip-path="url(#0cfc3ebac7)"><path fill="#1c567f" d="M 40.523438 62.632812 C 40.875 62.277344 40.871094 61.703125 40.519531 61.351562 C 40.164062 61 39.589844 61.003906 39.234375 61.359375 L 37.070312 63.554688 C 36.71875 63.910156 36.722656 64.484375 37.074219 64.835938 C 37.253906 65.011719 37.484375 65.097656 37.714844 65.097656 C 37.945312 65.097656 38.179688 65.007812 38.355469 64.832031 L 40.523438 62.632812 " fill-opacity="1" fill-rule="nonzero"/></g></g></g><g clip-path="url(#190b79868f)"><g clip-path="url(#77325ec833)"><g clip-path="url(#41f400812f)"><path fill="#1c567f" d="M 28.675781 61.355469 C 28.324219 61.003906 27.746094 61 27.394531 61.351562 C 27.039062 61.703125 27.035156 62.277344 27.386719 62.632812 L 29.554688 64.832031 C 29.730469 65.007812 29.964844 65.097656 30.195312 65.097656 C 30.429688 65.097656 30.660156 65.011719 30.835938 64.835938 C 31.191406 64.484375 31.191406 63.910156 30.839844 63.554688 L 28.675781 61.355469 " fill-opacity="1" fill-rule="nonzero"/></g></g></g><g clip-path="url(#0c9774d25f)"><g clip-path="url(#5267d1aa58)"><g clip-path="url(#3ff8541f7d)"><path fill="#1c567f" d="M 43.816406 66.859375 C 43.644531 66.6875 43.417969 66.597656 43.175781 66.59375 L 39.804688 66.617188 C 39.5625 66.621094 39.335938 66.714844 39.167969 66.886719 C 38.996094 67.058594 38.902344 67.285156 38.902344 67.527344 C 38.90625 68.027344 39.3125 68.429688 39.808594 68.429688 C 39.8125 68.429688 39.8125 68.429688 39.8125 68.429688 L 43.183594 68.40625 C 43.683594 68.40625 44.085938 67.996094 44.085938 67.496094 C 44.082031 67.253906 43.988281 67.027344 43.816406 66.859375 " fill-opacity="1" fill-rule="nonzero"/></g></g></g><g clip-path="url(#90e8fdfde5)"><g clip-path="url(#cd45a52c86)"><g clip-path="url(#22441e10ca)"><path fill="#1c567f" d="M 28.21875 66.660156 C 28.214844 66.660156 28.214844 66.660156 28.214844 66.660156 L 24.84375 66.683594 C 24.601562 66.683594 24.375 66.777344 24.207031 66.949219 C 24.035156 67.121094 23.941406 67.351562 23.941406 67.589844 C 23.945312 67.832031 24.039062 68.058594 24.210938 68.230469 C 24.382812 68.398438 24.609375 68.492188 24.847656 68.492188 C 24.851562 68.492188 24.851562 68.492188 24.851562 68.492188 L 28.222656 68.472656 C 28.460938 68.46875 28.691406 68.375 28.859375 68.203125 C 29.03125 68.03125 29.125 67.804688 29.121094 67.5625 C 29.121094 67.320312 29.027344 67.09375 28.855469 66.921875 C 28.683594 66.753906 28.457031 66.660156 28.21875 66.660156 " fill-opacity="1" fill-rule="nonzero"/></g></g></g></svg>