<svg xmlns="http://www.w3.org/2000/svg" xmlns:xlink="http://www.w3.org/1999/xlink" width="500" zoomAndPan="magnify" viewBox="0 0 375 119.999999" height="160" preserveAspectRatio="xMidYMid meet" version="1.0">
<defs>
<g/>
<filter id="shadow" x="-20%" y="-20%" width="140%" height="140%">
    <feOffset in="SourceAlpha" dx="2" dy="2" result="offsettedAlpha"/>
    <feGaussianBlur in="offsettedAlpha" stdDeviation="2" result="blurredAlpha"/>
    <feFlood flood-color="cyan"/>
    <feComposite in2="blurredAlpha" operator="in"/>
    <feMerge>
        <feMergeNode in="blurredAlpha"/>
        <feMergeNode in="SourceGraphic"/>
    </feMerge>
</filter>
</defs>
<g fill="#1c567f" fill-opacity="1"><g transform="translate(1.541022, 90.960299)"><g><path d="M 73.625 -62.4375 L 52.3125 -24.734375 L 42.40625 -25.21875 L 26.390625 -60.078125 L 16.265625 -3.421875 L 5.296875 -5.421875 L 18.609375 -79.515625 L 28.984375 -80.8125 L 48.0625 -39.703125 L 71.625 -81.296875 L 81.875 -79.515625 L 95.3125 -5.421875 L 84.359375 -3.421875 Z M 73.625 -62.4375 " filter="url(#shadow)"/></g></g></g><g fill="#1c567f" fill-opacity="1"><g transform="translate(102.149414, 90.960299)" filter="url(#shadow)"><g><path d="M 10.375 -7.0625 L 5.890625 -13.3125 L 11.546875 -55.25 L 16.5 -59.96875 L 51.015625 -62.796875 L 56.4375 -59.84375 L 66.453125 -40.0625 L 62.5625 -32.15625 L 25.921875 -24.5 L 23.5625 -35.21875 L 53.140625 -41.59375 L 48.1875 -51.359375 L 21.796875 -49.359375 L 17.546875 -16.96875 L 58.078125 -9.421875 L 55.953125 1.40625 Z M 10.375 -7.0625 "/></g></g></g><g fill="#1c567f" fill-opacity="1"><g transform="translate(169.771438, 90.960299)" filter="url(#shadow)"><g><path d="M 5.890625 -7.296875 L 11.3125 -47.953125 L 17.671875 -52.65625 L 52.3125 -47.125 L 50.421875 -73.515625 L 61.609375 -74.21875 L 65.734375 -12.25 L 60.796875 -6.359375 L 11.90625 -1.0625 Z M 17.796875 -12.84375 L 54.3125 -16.734375 L 53.015625 -35.8125 L 21.5625 -40.875 Z M 17.796875 -12.84375 "/></g></g></g><g fill="#1c567f" fill-opacity="1"><g transform="translate(241.398946, 90.960299)" filter="url(#shadow)"><g><path d="M 5.890625 -7.296875 L 11.3125 -47.953125 L 17.671875 -52.65625 L 52.3125 -47.125 L 50.421875 -73.515625 L 61.609375 -74.21875 L 65.734375 -12.25 L 60.796875 -6.359375 L 11.90625 -1.0625 Z M 17.796875 -12.84375 L 54.3125 -16.734375 L 53.015625 -35.8125 L 21.5625 -40.875 Z M 17.796875 -12.84375 "/></g></g></g><g fill="#1c567f" fill-opacity="1"><g transform="translate(313.026454, 90.960299)" filter="url(#shadow)"><g><path d="M 1.171875 -1.765625 L 21.09375 -25.921875 L 1.171875 -50.0625 L 9.78125 -57.140625 L 28.390625 -34.640625 L 51.609375 -62.796875 L 60.078125 -55.71875 L 9.78125 5.296875 Z M 1.171875 -1.765625 "/></g></g></g><g fill="#737373" fill-opacity="1"><g transform="translate(73.075227, 113.511289)"><g><path d="M 3.984375 0 L 2.09375 0 L 0.40625 -12.359375 L 1.75 -12.359375 L 3.203125 -1.84375 L 4.578125 -12.34375 L 5.9375 -12.34375 L 7.296875 -1.8125 L 8.6875 -12.359375 L 9.890625 -12.359375 L 8.203125 0 L 6.390625 0 L 5.203125 -8.390625 Z M 3.984375 0 "/></g></g></g><g fill="#737373" fill-opacity="1"><g transform="translate(90.429958, 113.511289)"><g><path d="M 5.109375 -6.890625 L 5.109375 -5.65625 L 2.078125 -5.65625 L 2.078125 -1.25 L 5.796875 -1.25 L 5.796875 0 L 0.703125 0 L 0.703125 -12.359375 L 5.796875 -12.359375 L 5.796875 -11.109375 L 2.078125 -11.109375 L 2.078125 -6.890625 Z M 5.109375 -6.890625 "/></g></g></g><g fill="#737373" fill-opacity="1"><g transform="translate(103.847692, 113.511289)"><g><path d="M 2.09375 -2.484375 L 1.625 0 L 0.359375 0 L 2.71875 -12.359375 L 4.71875 -12.359375 L 7.078125 0 L 5.703125 0 L 5.21875 -2.484375 Z M 2.28125 -3.671875 L 5.03125 -3.671875 L 3.640625 -10.8125 Z M 2.28125 -3.671875 "/></g></g></g><g fill="#737373" fill-opacity="1"><g transform="translate(118.360007, 113.511289)"><g><path d="M 1.75 -12.359375 L 3.765625 -1.609375 L 5.75 -12.359375 L 7.03125 -12.359375 L 4.71875 0 L 2.6875 0 L 0.359375 -12.359375 Z M 1.75 -12.359375 "/></g></g></g><g fill="#737373" fill-opacity="1"><g transform="translate(132.801706, 113.511289)"><g><path d="M 2.078125 -12.359375 L 2.078125 0 L 0.703125 0 L 0.703125 -12.359375 Z M 2.078125 -12.359375 "/></g></g></g><g fill="#737373" fill-opacity="1"><g transform="translate(142.653182, 113.511289)"><g><path d="M 1.921875 0 L 0.6875 0 L 0.6875 -12.359375 L 2.4375 -12.359375 L 5.296875 -3.421875 L 5.296875 -12.359375 L 6.515625 -12.359375 L 6.515625 0 L 5.078125 0 L 1.921875 -10 Z M 1.921875 0 "/></g></g></g><g fill="#737373" fill-opacity="1"><g transform="translate(156.93599, 113.511289)"><g><path d="M 3.375 -12.484375 C 4.320312 -12.484375 5.019531 -12.195312 5.46875 -11.625 C 5.925781 -11.0625 6.15625 -10.3125 6.15625 -9.375 L 6.15625 -8.3125 L 4.859375 -8.3125 L 4.859375 -9.453125 C 4.859375 -10.015625 4.742188 -10.453125 4.515625 -10.765625 C 4.285156 -11.078125 3.914062 -11.234375 3.40625 -11.234375 C 2.914062 -11.234375 2.550781 -11.078125 2.3125 -10.765625 C 2.070312 -10.453125 1.953125 -10.015625 1.953125 -9.453125 L 1.953125 -2.90625 C 1.953125 -2.34375 2.070312 -1.90625 2.3125 -1.59375 C 2.550781 -1.28125 2.914062 -1.125 3.40625 -1.125 C 3.914062 -1.125 4.285156 -1.28125 4.515625 -1.59375 C 4.742188 -1.90625 4.859375 -2.34375 4.859375 -2.90625 L 4.859375 -5.390625 L 3.578125 -5.390625 L 3.578125 -6.625 L 6.15625 -6.625 L 6.15625 -2.984375 C 6.15625 -2.046875 5.925781 -1.289062 5.46875 -0.71875 C 5.019531 -0.15625 4.320312 0.125 3.375 0.125 C 2.425781 0.125 1.722656 -0.15625 1.265625 -0.71875 C 0.816406 -1.289062 0.59375 -2.046875 0.59375 -2.984375 L 0.59375 -9.375 C 0.59375 -9.84375 0.648438 -10.269531 0.765625 -10.65625 C 0.878906 -11.039062 1.050781 -11.367188 1.28125 -11.640625 C 1.507812 -11.910156 1.796875 -12.117188 2.140625 -12.265625 C 2.492188 -12.410156 2.90625 -12.484375 3.375 -12.484375 Z M 3.375 -12.484375 "/></g></g></g><g fill="#737373" fill-opacity="1"><g transform="translate(170.759769, 113.511289)"><g/></g></g><g fill="#737373" fill-opacity="1"><g transform="translate(180.558276, 113.511289)"><g><path d="M 2.484375 0 L 2.484375 -11.109375 L 0.21875 -11.109375 L 0.21875 -12.359375 L 6.125 -12.359375 L 6.125 -11.109375 L 3.84375 -11.109375 L 3.84375 0 Z M 2.484375 0 "/></g></g></g><g fill="#737373" fill-opacity="1"><g transform="translate(193.976011, 113.511289)"><g><path d="M 2.078125 -5.5625 L 2.078125 0 L 0.703125 0 L 0.703125 -12.359375 L 2.078125 -12.359375 L 2.078125 -6.796875 L 5.125 -6.796875 L 5.125 -12.359375 L 6.5 -12.359375 L 6.5 0 L 5.125 0 L 5.125 -5.5625 Z M 2.078125 -5.5625 "/></g></g></g><g fill="#737373" fill-opacity="1"><g transform="translate(208.241172, 113.511289)"><g><path d="M 5.109375 -6.890625 L 5.109375 -5.65625 L 2.078125 -5.65625 L 2.078125 -1.25 L 5.796875 -1.25 L 5.796875 0 L 0.703125 0 L 0.703125 -12.359375 L 5.796875 -12.359375 L 5.796875 -11.109375 L 2.078125 -11.109375 L 2.078125 -6.890625 Z M 5.109375 -6.890625 "/></g></g></g><g fill="#737373" fill-opacity="1"><g transform="translate(221.658906, 113.511289)"><g/></g></g><g fill="#737373" fill-opacity="1"><g transform="translate(231.457413, 113.511289)"><g><path d="M 4.921875 -6.609375 L 4.921875 -5.34375 L 2.078125 -5.34375 L 2.078125 0 L 0.703125 0 L 0.703125 -12.359375 L 5.609375 -12.359375 L 5.609375 -11.109375 L 2.078125 -11.109375 L 2.078125 -6.609375 Z M 4.921875 -6.609375 "/></g></g></g><g fill="#737373" fill-opacity="1"><g transform="translate(244.522043, 113.511289)"><g><path d="M 2.015625 -2.90625 C 2.015625 -2.34375 2.128906 -1.90625 2.359375 -1.59375 C 2.585938 -1.28125 2.953125 -1.125 3.453125 -1.125 C 3.953125 -1.125 4.316406 -1.28125 4.546875 -1.59375 C 4.773438 -1.90625 4.890625 -2.34375 4.890625 -2.90625 L 4.890625 -12.359375 L 6.1875 -12.359375 L 6.1875 -2.984375 C 6.1875 -2.046875 5.960938 -1.289062 5.515625 -0.71875 C 5.066406 -0.144531 4.363281 0.140625 3.40625 0.140625 C 2.46875 0.140625 1.773438 -0.144531 1.328125 -0.71875 C 0.878906 -1.289062 0.65625 -2.046875 0.65625 -2.984375 L 0.65625 -12.359375 L 2.015625 -12.359375 Z M 2.015625 -2.90625 "/></g></g></g><g fill="#737373" fill-opacity="1"><g transform="translate(258.416452, 113.511289)"><g><path d="M 2.484375 0 L 2.484375 -11.109375 L 0.21875 -11.109375 L 0.21875 -12.359375 L 6.125 -12.359375 L 6.125 -11.109375 L 3.84375 -11.109375 L 3.84375 0 Z M 2.484375 0 "/></g></g></g><g fill="#737373" fill-opacity="1"><g transform="translate(271.834186, 113.511289)"><g><path d="M 2.015625 -2.90625 C 2.015625 -2.34375 2.128906 -1.90625 2.359375 -1.59375 C 2.585938 -1.28125 2.953125 -1.125 3.453125 -1.125 C 3.953125 -1.125 4.316406 -1.28125 4.546875 -1.59375 C 4.773438 -1.90625 4.890625 -2.34375 4.890625 -2.90625 L 4.890625 -12.359375 L 6.1875 -12.359375 L 6.1875 -2.984375 C 6.1875 -2.046875 5.960938 -1.289062 5.515625 -0.71875 C 5.066406 -0.144531 4.363281 0.140625 3.40625 0.140625 C 2.46875 0.140625 1.773438 -0.144531 1.328125 -0.71875 C 0.878906 -1.289062 0.65625 -2.046875 0.65625 -2.984375 L 0.65625 -12.359375 L 2.015625 -12.359375 Z M 2.015625 -2.90625 "/></g></g></g><g fill="#737373" fill-opacity="1"><g transform="translate(285.728595, 113.511289)"><g><path d="M 3.453125 -12.359375 C 4.429688 -12.359375 5.132812 -12.113281 5.5625 -11.625 C 6 -11.144531 6.21875 -10.445312 6.21875 -9.53125 L 6.21875 -8.53125 C 6.21875 -7.84375 6.09375 -7.285156 5.84375 -6.859375 C 5.59375 -6.441406 5.203125 -6.148438 4.671875 -5.984375 C 5.242188 -5.816406 5.644531 -5.515625 5.875 -5.078125 C 6.113281 -4.640625 6.234375 -4.082031 6.234375 -3.40625 L 6.234375 -1.484375 C 6.234375 -1.210938 6.242188 -0.945312 6.265625 -0.6875 C 6.285156 -0.4375 6.359375 -0.207031 6.484375 0 L 5.078125 0 C 5.003906 -0.175781 4.945312 -0.367188 4.90625 -0.578125 C 4.875 -0.785156 4.859375 -1.09375 4.859375 -1.5 L 4.859375 -3.4375 C 4.859375 -4.132812 4.703125 -4.613281 4.390625 -4.875 C 4.078125 -5.144531 3.628906 -5.28125 3.046875 -5.28125 L 2.078125 -5.28125 L 2.078125 0 L 0.703125 0 L 0.703125 -12.359375 Z M 3.109375 -6.53125 C 3.660156 -6.53125 4.085938 -6.644531 4.390625 -6.875 C 4.703125 -7.101562 4.859375 -7.554688 4.859375 -8.234375 L 4.859375 -9.40625 C 4.859375 -9.976562 4.75 -10.40625 4.53125 -10.6875 C 4.3125 -10.96875 3.941406 -11.109375 3.421875 -11.109375 L 2.078125 -11.109375 L 2.078125 -6.53125 Z M 3.109375 -6.53125 "/></g></g></g><g fill="#737373" fill-opacity="1"><g transform="translate(299.746589, 113.511289)"><g><path d="M 5.109375 -6.890625 L 5.109375 -5.65625 L 2.078125 -5.65625 L 2.078125 -1.25 L 5.796875 -1.25 L 5.796875 0 L 0.703125 0 L 0.703125 -12.359375 L 5.796875 -12.359375 L 5.796875 -11.109375 L 2.078125 -11.109375 L 2.078125 -6.890625 Z M 5.109375 -6.890625 "/></g></g></g><g fill="#1c567f" fill-opacity="1"><g transform="translate(345.923422, 105.049989)" filter="url(#shadow)"><g><path d="M 9.71875 -6.265625 L 10.0625 -4.34375 L 4.21875 -3.359375 L 2.46875 0.484375 L 0.71875 -0.28125 L 7.515625 -15.140625 L 9.265625 -15.15625 L 15.46875 -2.125 L 13.734375 -1.28125 L 8.390625 -12.46875 L 5.203125 -5.484375 Z M 9.71875 -6.265625 "/></g></g></g><g fill="#1c567f" fill-opacity="1"><g transform="translate(365.330866, 105.049989)" filter="url(#shadow)"><g><path d="M 1.328125 -0.390625 L 2.015625 -14.40625 L 3.953125 -14.3125 L 3.25 -0.28125 Z M 1.328125 -0.390625 "/></g></g></g></svg>